<svg width="50" height="50" viewBox="0 0 50 50" fill="none" xmlns="http://www.w3.org/2000/svg">
<path opacity="0.91" d="M46 0C48.2091 0 50 1.79086 50 4V45.3672C49.9999 47.5763 48.2091 49.3672 46 49.3672H4C1.79089 49.3672 5.36985e-05 47.5763 0 45.3672V4C4.9457e-07 1.79086 1.79086 0 4 0H46ZM5.69629 6.0127V43.6709H44.3037V6.0127H5.69629Z" fill="#62D1CA"/>
<rect x="11.709" width="6.32911" height="43.6709" fill="#366378"/>
<g filter="url(#filter0_d_239_3462)">
<rect x="11.709" y="16.7725" width="6.32911" height="15.5063" fill="#62D1CA"/>
</g>
<path d="M24.5254 10.4434C32.3028 10.4434 38.6074 16.748 38.6074 24.5254C38.6074 32.3028 32.3028 38.6074 24.5254 38.6074H18.0381V32.2783H24.8418C29.1237 32.2783 32.5947 28.8073 32.5947 24.5254C32.5947 20.2434 29.1237 16.7725 24.8418 16.7725H18.0381V10.4434H24.5254Z" fill="#62D1CA"/>
<defs>
<filter id="filter0_d_239_3462" x="7.70898" y="16.7725" width="14.3291" height="23.5059" filterUnits="userSpaceOnUse" color-interpolation-filters="sRGB">
<feFlood flood-opacity="0" result="BackgroundImageFix"/>
<feColorMatrix in="SourceAlpha" type="matrix" values="0 0 0 0 0 0 0 0 0 0 0 0 0 0 0 0 0 0 127 0" result="hardAlpha"/>
<feOffset dy="4"/>
<feGaussianBlur stdDeviation="2"/>
<feComposite in2="hardAlpha" operator="out"/>
<feColorMatrix type="matrix" values="0 0 0 0 0 0 0 0 0 0 0 0 0 0 0 0 0 0 0.25 0"/>
<feBlend mode="normal" in2="BackgroundImageFix" result="effect1_dropShadow_239_3462"/>
<feBlend mode="normal" in="SourceGraphic" in2="effect1_dropShadow_239_3462" result="shape"/>
</filter>
</defs>
</svg>
