<svg width="41" height="50" viewBox="0 0 41 50" fill="none" xmlns="http://www.w3.org/2000/svg">
<path d="M29.216 47.9537C27.9158 48.6065 26.6034 49.1621 25.2156 49.4924C24.3683 49.694 23.4977 49.8471 22.6301 49.9014C21.2794 49.9859 19.9198 50.0306 18.5686 49.9761C17.1216 49.9178 15.6778 49.7078 14.2991 49.2377C13.1562 48.848 12.0183 48.4251 10.9221 47.921C9.4853 47.2604 8.17293 46.3806 6.97875 45.3355C6.45696 44.8788 5.9157 44.438 5.44052 43.9356C4.19577 42.6195 3.11854 41.1824 2.26198 39.5706C1.36701 37.8864 0.768727 36.1061 0.401 34.2506C0.211416 33.294 0.169852 32.307 0.0782582 31.3321C0.0322226 30.8422 -0.0167463 30.3468 0.00556323 29.857C0.0964983 27.8608 0.386432 25.899 0.960074 23.9751C1.50017 22.1636 2.25649 20.449 3.14063 18.7916C3.94884 17.2764 4.93404 15.8731 5.992 14.5177C8.27689 11.5904 11.001 9.08244 13.5966 6.45196C14.8178 5.21429 16.0913 4.02832 17.3094 2.78766C18.0867 1.99605 18.7982 1.14009 19.554 0.326756C19.9635 -0.113911 20.2029 -0.106241 20.6265 0.333886C22.5691 2.35182 24.4912 4.38973 26.4519 6.38969C27.9451 7.91275 29.5179 9.35793 30.9955 10.8956C32.6148 12.5807 34.1255 14.3627 35.453 16.2971C36.3846 17.6547 37.216 19.0661 37.9081 20.5578C38.7473 22.3669 39.3439 24.2553 39.7197 26.2175C40.0493 27.9384 40.1822 29.6757 40.0768 31.4163C40.0066 32.5739 39.7998 33.7281 39.5851 34.8708C39.278 36.5053 38.6628 38.036 37.8914 39.5069C37.2248 40.7782 36.4299 41.9546 35.49 43.0419C34.2366 44.4919 32.8138 45.7402 31.2103 46.7795C30.5715 47.1936 29.8975 47.5531 29.216 47.9537Z" fill="#46BEAE"/>
<path d="M14.1809 21.5862C13.9946 21.5388 13.8381 21.5006 13.6553 21.4559C13.8574 20.6358 14.0511 19.85 14.2509 19.0396C15.605 19.3762 16.9239 19.704 18.2769 20.0404C18.5268 19.0408 18.7725 18.0578 19.0267 17.041C19.7749 17.229 20.5031 17.412 21.2646 17.6034C21.0264 18.5852 20.794 19.543 20.5548 20.5286C21.1507 20.6701 21.7116 20.8033 22.3048 20.9441C22.5435 19.9857 22.7794 19.038 23.0268 18.0441C23.7728 18.2295 24.5002 18.4104 25.2715 18.6021C25.0286 19.6045 24.7906 20.587 24.5553 21.5577C25.0858 21.8342 25.6092 22.0614 26.0854 22.3644C27.2954 23.1342 28.1479 24.1837 28.4593 25.6313C28.7718 27.0837 28.1193 29.3191 26.2137 30.105C26.8409 30.6277 27.3651 31.2184 27.6725 31.9807C28.7023 34.5343 27.4358 37.591 24.9738 38.4627C23.8034 38.8771 22.592 38.8578 21.3782 38.751C21.0534 38.7225 20.7311 38.6656 20.3683 38.6164C20.0979 39.7025 19.8317 40.7711 19.5591 41.8657C18.8002 41.6773 18.0707 41.4963 17.3129 41.3082C17.5757 40.2307 17.8306 39.1852 18.0967 38.0942C17.5191 37.9408 16.9649 37.7936 16.3579 37.6324C16.0898 38.7087 15.8247 39.7734 15.5521 40.8677C14.7986 40.6768 14.0706 40.4924 13.3145 40.3009C13.549 39.3354 13.756 38.3928 14.0141 37.4647C14.1179 37.0918 14.0178 36.9825 13.6706 36.9021C12.6142 36.6574 11.5656 36.3782 10.5143 36.1111C10.3837 36.0779 10.255 36.0366 10.0908 35.9891C10.4411 35.1649 10.7717 34.3684 11.1262 33.5829C11.159 33.5103 11.3532 33.4596 11.4558 33.4808C11.8752 33.5675 12.2862 33.6948 12.704 33.791C13.3741 33.9454 13.7301 33.7094 13.8962 33.0307C14.6705 29.8658 15.4459 26.7011 16.2242 23.5372C16.4416 22.6535 16.1718 22.1467 15.3087 21.8817C14.9473 21.7708 14.577 21.69 14.1809 21.5862ZM18.5379 30.0303C18.352 29.9508 18.2685 30.016 18.2233 30.2144C18.0906 30.7977 17.938 31.3763 17.7963 31.9574C17.5591 32.9299 17.3244 33.903 17.0838 34.8956C17.4364 34.9899 17.7498 35.0822 18.0672 35.1572C19.3453 35.4596 20.6221 35.7635 21.9543 35.5821C22.9636 35.4447 23.6733 34.883 23.8953 34.0144C24.1295 33.0981 23.8158 32.2733 22.971 31.6567C22.6862 31.4489 22.3875 31.227 22.0604 31.118C20.9142 30.7361 19.7528 30.4007 18.5379 30.0303ZM19.1385 26.5082C19.0494 26.8873 18.9602 27.2665 18.8726 27.639C19.8857 28.027 21.8808 28.4489 22.9498 28.2188C23.7509 28.0464 24.3442 27.63 24.5678 26.7992C24.8008 25.9337 24.5694 25.1866 23.8488 24.6736C23.3713 24.3337 22.8349 24.0486 22.2859 23.8484C21.536 23.575 20.749 23.4057 19.9549 23.1854C19.8045 23.7961 19.6747 24.3252 19.5439 24.854C19.4127 25.3847 19.2805 25.9152 19.1385 26.5082Z" fill="#FEFFFE"/>
</svg>
