<svg width="18" height="18" viewBox="0 0 18 18" fill="none" xmlns="http://www.w3.org/2000/svg">
<path fill-rule="evenodd" clip-rule="evenodd" d="M17.8316 3.4159C18.5977 1.38681 16.613 -0.597913 14.5839 0.168208L1.94041 4.94201C-0.756168 5.96016 -0.605155 9.82477 2.16267 10.6294L5.66982 11.6489C5.99845 11.7444 6.25539 12.0014 6.35093 12.33L7.37043 15.8371C8.17503 18.6049 12.0396 18.756 13.0578 16.0594L17.8316 3.4159ZM13.9456 2.54703L2.64687 6.81309C1.74801 7.15247 1.79836 8.44068 2.72096 8.70888L6.22811 9.7284C6.26811 9.74003 6.30776 9.75245 6.34704 9.76566L13.9456 2.54703ZM7.93349 11.0172C8.07863 11.249 8.19311 11.5023 8.27143 11.7717L9.29093 15.2788C9.55913 16.2014 10.8473 16.2518 11.1867 15.3529L15.559 3.77292L7.93349 11.0172Z" fill="white"/>
</svg>
