<svg width="25" height="25" viewBox="0 0 25 25" fill="none" xmlns="http://www.w3.org/2000/svg">
<rect width="25" height="25" rx="12.5" fill="#EA1E63"/>
<path d="M15 21.25L20 16.25L18.25 14.5L16.25 16.4375V11.25H13.75V16.4375L11.75 14.5L9.99999 16.25L15 21.25ZM8.75 13.75H11.25V8.5625L13.25 10.5L15 8.75L9.99999 3.75L5 8.75L6.75 10.5L8.75 8.5625V13.75ZM12.5 25C10.7708 25 9.14583 24.6717 7.625 24.015C6.10416 23.3583 4.78125 22.4679 3.65625 21.3437C2.53125 20.2196 1.64083 18.8967 0.985001 17.375C0.329168 15.8533 0.000834915 14.2283 1.58228e-06 12.5C-0.00083175 10.7717 0.327501 9.14666 0.985001 7.625C1.6425 6.10333 2.53292 4.78042 3.65625 3.65625C4.77958 2.53208 6.1025 1.64167 7.625 0.985C9.1475 0.328333 10.7725 0 12.5 0C14.2275 0 15.8525 0.328333 17.375 0.985C18.8975 1.64167 20.2204 2.53208 21.3437 3.65625C22.4671 4.78042 23.3579 6.10333 24.0162 7.625C24.6746 9.14666 25.0025 10.7717 25 12.5C24.9975 14.2283 24.6692 15.8533 24.015 17.375C23.3608 18.8967 22.4704 20.2196 21.3437 21.3437C20.2171 22.4679 18.8942 23.3587 17.375 24.0162C15.8558 24.6737 14.2308 25.0017 12.5 25Z" fill="#343F52"/>
</svg>
