<svg width="398" height="432" viewBox="0 0 398 432" fill="none" xmlns="http://www.w3.org/2000/svg">
<g clip-path="url(#clip0_239_5474)">
<path d="M0 199C0 89.0953 89.0953 0 199 0V0C308.905 0 398 89.0953 398 199V432H0V199Z" fill="#EA1E63"/>
<g opacity="0.05">
<path d="M-13.5805 411.089C112.337 218.692 244.713 138.881 347.385 102.605C432.982 72.3692 463.218 84.6705 530.615 43.8598C676.867 -44.7058 809.356 -269.076 729.8 -431.084C690.61 -510.89 621.627 -512.298 504.947 -586.755C399.985 -653.737 261.77 -777.58 133.944 -1027.73" stroke="white" stroke-width="3" stroke-miterlimit="10"/>
<path d="M13.225 421.132C126.471 230.376 252.306 149.309 349.367 110.917C431.056 78.622 460.119 84.2987 527.385 39.2822C668.493 -55.1516 794.739 -265.409 722.052 -425.143C684.617 -507.42 618.212 -516.447 502.715 -595.832C401.033 -665.723 265.505 -790.082 138.361 -1036.61" stroke="white" stroke-width="3" stroke-miterlimit="10"/>
<path d="M40.0892 431.186C140.638 242.081 259.961 159.673 351.359 119.23C429.222 84.7771 457.001 84.0332 524.154 34.6869C660.183 -65.2717 780.356 -262.046 714.303 -419.206C678.615 -504.108 614.84 -520.48 500.489 -604.93C402.095 -677.603 269.262 -802.606 142.809 -1045.51" stroke="white" stroke-width="3" stroke-miterlimit="10"/>
<path d="M67.0237 441.253C154.844 253.804 267.686 169.945 353.381 127.564C427.472 90.892 453.883 83.8949 520.92 30.0688C651.958 -75.0869 766.225 -258.957 706.54 -413.262C672.635 -500.932 611.499 -524.39 498.261 -614.045C403.158 -689.338 273.032 -815.15 147.254 -1054.4" stroke="white" stroke-width="3" stroke-miterlimit="10"/>
<path d="M94.0205 451.327C169.077 265.516 275.458 180.094 355.369 135.895C425.801 96.9323 450.779 83.837 517.678 25.4858C643.813 -84.5683 752.345 -256.069 698.758 -407.268C666.655 -497.855 608.155 -528.137 496.023 -623.131C404.201 -700.923 276.801 -827.672 151.72 -1063.26" stroke="white" stroke-width="3" stroke-miterlimit="10"/>
<path d="M121.087 461.411C183.349 277.283 283.285 190.109 357.384 144.244C424.218 102.877 447.696 83.9446 514.433 20.8723C635.782 -93.8007 738.726 -253.406 690.971 -401.276C660.73 -494.905 604.804 -531.738 493.787 -632.241C405.223 -712.398 280.587 -840.214 156.165 -1072.15" stroke="white" stroke-width="3" stroke-miterlimit="10"/>
<path d="M148.222 471.503C197.64 289.04 291.129 199.944 359.405 152.604C422.711 108.71 444.653 84.1423 511.185 16.2576C627.863 -102.798 725.369 -250.914 683.166 -395.273C654.872 -492.052 601.432 -535.254 491.552 -641.355C406.209 -723.762 284.385 -852.782 160.639 -1081.04" stroke="white" stroke-width="3" stroke-miterlimit="10"/>
<path d="M175.437 481.589C212.008 300.806 298.996 209.566 361.437 160.958C421.268 114.385 441.67 84.4164 507.937 11.621C620.068 -111.595 712.27 -248.586 675.351 -389.272C649.103 -489.303 598.023 -538.629 489.313 -650.491C407.157 -735.01 288.198 -865.321 165.12 -1089.93" stroke="white" stroke-width="3" stroke-miterlimit="10"/>
<path d="M202.713 491.712C226.391 312.611 306.836 218.99 363.473 169.356C419.868 119.914 438.76 84.8616 504.673 7.00449C612.391 -120.192 699.415 -246.346 667.518 -383.224C643.435 -486.604 594.538 -541.85 487.065 -659.6C408.052 -746.169 291.997 -877.893 169.614 -1098.84" stroke="white" stroke-width="3" stroke-miterlimit="10"/>
<path d="M230.055 501.821C240.806 324.404 314.62 228.148 365.504 177.74C418.47 125.267 435.875 85.3526 501.398 2.3666C604.821 -128.629 686.782 -244.19 659.657 -377.186C637.882 -483.958 590.97 -544.978 484.804 -668.735C408.878 -757.245 295.81 -890.476 174.098 -1107.71" stroke="white" stroke-width="3" stroke-miterlimit="10"/>
<path d="M257.499 511.945C255.286 336.197 322.349 237.049 367.565 186.136C417.074 130.396 433.113 85.9406 498.136 -2.27702C597.396 -136.944 674.399 -242.092 651.806 -371.127C632.503 -481.354 587.329 -547.987 482.561 -677.868C409.663 -768.237 299.654 -903.056 178.625 -1116.59" stroke="white" stroke-width="3" stroke-miterlimit="10"/>
<path d="M285.006 522.07C269.784 348.038 329.949 245.684 369.621 194.542C415.59 135.291 430.434 86.5928 494.859 -6.92377C590.078 -145.156 662.214 -240.029 643.923 -365.06C627.29 -478.77 583.571 -550.902 480.307 -687.007C410.373 -779.176 303.493 -915.646 183.139 -1125.48" stroke="white" stroke-width="3" stroke-miterlimit="10"/>
<path d="M312.595 532.203C284.332 359.871 337.397 254.071 371.689 202.959C413.968 139.942 427.837 87.3515 491.577 -11.5803C582.875 -153.285 650.226 -237.964 636.025 -358.985C622.272 -476.173 579.699 -553.729 478.045 -696.152C411.015 -790.064 307.346 -928.242 187.668 -1134.37" stroke="white" stroke-width="3" stroke-miterlimit="10"/>
<path d="M340.262 542.338C298.923 371.709 344.663 262.228 373.761 211.381C412.128 144.338 425.343 88.1569 488.283 -16.2335C575.772 -161.342 638.396 -235.879 628.111 -352.886C617.484 -473.572 575.69 -556.473 475.778 -705.295C411.584 -800.923 311.198 -940.851 192.218 -1143.25" stroke="white" stroke-width="3" stroke-miterlimit="10"/>
<path d="M368.011 552.479C313.552 383.56 351.717 270.203 375.836 219.827C409.975 148.512 422.941 89.0338 484.985 -20.8945C568.774 -169.357 626.761 -233.73 620.174 -346.776C612.941 -470.907 571.544 -559.156 473.493 -714.445C412.064 -811.739 315.065 -953.448 196.742 -1152.13" stroke="white" stroke-width="3" stroke-miterlimit="10"/>
<path d="M395.847 562.625C328.233 395.399 358.544 278.047 377.924 228.247C407.425 152.444 420.647 89.9289 481.679 -25.5847C561.887 -177.348 615.261 -231.544 612.227 -340.679C608.676 -468.193 567.27 -561.804 471.234 -723.616C412.501 -822.577 318.962 -966.078 201.318 -1161.03" stroke="white" stroke-width="3" stroke-miterlimit="10"/>
<path d="M423.769 572.752C342.954 407.268 378.919 290.258 380.025 236.671C381.831 149.02 418.458 90.8592 478.372 -30.2879C555.067 -185.348 603.889 -229.252 604.254 -334.558C604.719 -465.354 562.813 -564.413 468.952 -732.78C412.861 -833.392 322.856 -978.702 205.904 -1169.91" stroke="white" stroke-width="3" stroke-miterlimit="10"/>
<path d="M450.128 580.871C356.364 417.295 381.604 294.894 380.702 243.481C379.123 153.37 414.843 90.3886 473.362 -36.2783C546.456 -194.463 590.607 -227.916 594.227 -329.4C599.025 -463.198 556.308 -567.689 465.029 -742.448C411.676 -844.604 325.55 -991.549 209.618 -1178.8" stroke="white" stroke-width="3" stroke-miterlimit="10"/>
<path d="M476.013 588.398C369.407 426.776 383.404 299.45 381.048 249.802C376.654 157.126 410.998 89.5185 467.996 -42.6488C537.509 -203.887 577.005 -226.768 583.78 -324.518C593.244 -461.107 549.251 -571.149 460.772 -752.238C410.12 -855.912 327.986 -1004.44 213.174 -1187.68" stroke="white" stroke-width="3" stroke-miterlimit="10"/>
<path d="M501.866 595.922C382.467 436.252 378.797 303.798 381.462 256.113C386.737 162.197 407.339 88.6634 462.708 -49.015C528.768 -213.322 563.64 -225.474 573.439 -319.663C587.905 -458.832 542.121 -574.626 456.566 -762.044C408.533 -867.258 330.443 -1017.34 216.717 -1196.58" stroke="white" stroke-width="3" stroke-miterlimit="10"/>
<path d="M527.691 603.447C395.535 445.721 382.976 310.056 381.936 262.429C379.799 164.508 403.856 87.8403 457.513 -55.3606C520.219 -222.748 550.495 -223.998 563.226 -314.811C583.067 -456.317 535.007 -578.104 452.472 -771.817C406.975 -878.598 332.959 -1030.2 220.314 -1205.46" stroke="white" stroke-width="3" stroke-miterlimit="10"/>
<path d="M553.496 610.974C408.614 455.182 387.13 316.7 382.463 268.736C372.575 167.239 400.542 87.0281 452.401 -61.7022C511.846 -232.197 537.526 -222.341 553.124 -309.978C578.662 -453.546 527.829 -581.611 448.444 -781.599C405.433 -889.963 335.5 -1043.07 223.92 -1214.35" stroke="white" stroke-width="3" stroke-miterlimit="10"/>
<path d="M-280.629 529.063C-146.102 312.482 -6.34369 220.734 101.705 178.023C191.785 142.423 223.291 155.361 294.449 108.453C448.863 6.65677 590.708 -245.576 509.575 -423.539C469.609 -511.204 397.365 -511.129 276.149 -591.015C167.108 -662.881 24.0071 -797.081 -106.491 -1071.74" stroke="white" stroke-width="3" stroke-miterlimit="10"/>
<path d="M-252.686 539.575C-131.456 325.116 1.46711 232.129 103.667 187.202C189.681 149.408 220.049 155.02 291.126 103.446C440.232 -4.7423 575.345 -241.159 501.377 -416.761C463.282 -507.212 393.842 -515.655 273.934 -601.04C168.368 -676.213 28.0884 -811.05 -101.744 -1081.71" stroke="white" stroke-width="3" stroke-miterlimit="10"/>
<path d="M-224.68 550.099C-116.774 337.774 9.34622 243.454 105.641 196.384C187.676 156.286 216.787 154.8 287.806 98.4225C431.665 -15.7789 560.233 -237.083 493.179 -409.985C456.951 -503.392 390.366 -520.051 271.727 -611.086C169.644 -689.427 32.1962 -825.043 -96.9617 -1091.7" stroke="white" stroke-width="3" stroke-miterlimit="10"/>
<path d="M-196.601 560.633C-102.052 350.45 17.2995 254.673 107.647 205.588C185.761 163.115 213.523 154.72 284.481 93.3718C423.183 -26.4805 545.389 -233.32 484.967 -403.203C450.643 -499.724 386.92 -524.314 269.517 -621.154C170.917 -702.481 36.317 -839.058 -92.1844 -1101.67" stroke="white" stroke-width="3" stroke-miterlimit="10"/>
<path d="M-168.459 571.177C-87.3021 363.115 25.3013 265.756 109.615 214.789C183.927 169.862 210.271 154.73 281.146 88.362C414.778 -36.8119 530.808 -229.783 476.732 -396.362C444.336 -496.165 383.466 -528.392 267.296 -631.186C172.166 -715.365 40.4345 -853.048 -87.3861 -1111.61" stroke="white" stroke-width="3" stroke-miterlimit="10"/>
<path d="M-140.242 581.727C-72.5109 375.838 33.3651 276.687 111.613 224.009C182.188 176.497 207.041 154.922 277.811 83.3163C406.493 -46.8714 516.507 -226.503 468.494 -389.527C438.091 -492.751 380.006 -532.312 265.079 -641.247C173.395 -728.129 44.5729 -867.063 -82.6078 -1121.59" stroke="white" stroke-width="3" stroke-miterlimit="10"/>
<path d="M-111.954 592.288C-57.7004 388.552 41.4477 287.421 113.615 233.244C180.53 183.011 203.85 155.215 274.471 78.2721C398.319 -56.6705 502.48 -223.418 460.236 -382.676C431.914 -489.442 376.522 -536.133 262.861 -651.31C174.582 -740.767 48.7217 -881.104 -77.8009 -1131.56" stroke="white" stroke-width="3" stroke-miterlimit="10"/>
<path d="M-83.5839 602.837C-42.8113 401.272 49.5566 297.915 115.629 242.469C178.94 189.344 200.721 155.589 271.13 73.2009C390.272 -66.2518 488.725 -220.524 451.966 -375.829C425.833 -486.255 372.995 -539.8 260.639 -661.401C175.727 -753.278 52.8862 -895.116 -72.9861 -1141.54" stroke="white" stroke-width="3" stroke-miterlimit="10"/>
<path d="M-55.1478 613.427C-27.904 414.036 57.6422 308.191 117.649 251.743C177.399 195.515 197.667 156.153 267.775 68.1539C382.348 -75.6133 475.229 -217.731 443.679 -368.928C419.86 -483.123 369.389 -543.293 258.408 -671.459C176.818 -765.687 57.0375 -909.163 -68.1567 -1151.54" stroke="white" stroke-width="3" stroke-miterlimit="10"/>
<path d="M-26.6427 624.002C-12.9638 426.786 65.6716 318.173 119.662 261.004C175.862 201.493 194.638 156.768 264.407 63.0838C374.533 -84.7984 461.965 -215.037 435.362 -362.037C414.005 -480.053 365.694 -546.679 256.165 -681.546C177.833 -778.002 61.2033 -923.221 -63.3388 -1161.49" stroke="white" stroke-width="3" stroke-miterlimit="10"/>
<path d="M1.96867 634.587C2.04452 439.533 73.6467 327.87 121.707 270.275C174.33 207.218 191.737 157.485 261.053 58.0051C366.868 -93.8538 448.966 -212.414 427.055 -355.126C408.337 -477.035 361.921 -549.935 253.94 -691.633C178.806 -790.224 65.4014 -937.279 -58.4751 -1171.46" stroke="white" stroke-width="3" stroke-miterlimit="10"/>
<path d="M30.6459 645.174C17.0713 452.334 81.4912 337.276 123.747 279.558C172.709 212.689 188.922 158.273 257.685 52.9248C359.315 -102.796 436.173 -209.834 418.716 -348.203C402.841 -474.043 358.025 -553.081 251.703 -701.725C179.699 -802.384 69.5948 -951.347 -53.6247 -1181.43" stroke="white" stroke-width="3" stroke-miterlimit="10"/>
<path d="M59.41 655.766C32.15 465.124 89.179 346.409 125.799 288.852C170.947 217.889 186.192 159.176 254.31 47.8321C351.88 -111.65 423.587 -207.258 410.359 -341.272C397.549 -471.041 354.007 -556.129 249.459 -711.824C180.52 -814.488 73.8028 -965.423 -48.7589 -1191.41" stroke="white" stroke-width="3" stroke-miterlimit="10"/>
<path d="M88.2522 666.362C47.2714 477.92 96.6773 355.293 127.852 298.153C168.957 222.813 183.565 160.13 250.92 42.7456C344.547 -120.425 411.164 -204.661 401.984 -334.312C392.495 -468.039 349.843 -559.079 247.206 -721.92C181.262 -826.556 78.0075 -979.511 -43.8741 -1201.38" stroke="white" stroke-width="3" stroke-miterlimit="10"/>
<path d="M117.183 676.961C62.436 490.729 103.959 363.979 129.912 307.481C166.646 227.499 181.039 161.162 247.53 37.6504C337.327 -129.156 398.948 -201.998 393.587 -327.339C387.7 -464.972 345.537 -561.958 244.938 -732.022C181.914 -838.574 82.2311 -993.588 -39.0129 -1211.34" stroke="white" stroke-width="3" stroke-miterlimit="10"/>
<path d="M146.205 687.562C77.6536 503.523 111.005 372.524 131.985 316.778C163.921 231.924 178.624 162.209 244.132 32.5209C330.221 -137.866 386.871 -199.299 385.18 -320.384C383.196 -461.859 341.096 -564.797 242.698 -742.151C182.519 -850.617 86.4863 -1007.7 -34.0971 -1221.33" stroke="white" stroke-width="3" stroke-miterlimit="10"/>
<path d="M175.318 698.141C92.9135 516.348 132.182 385.596 134.071 326.08C137.156 228.731 176.318 163.293 240.731 27.3778C323.185 -146.585 374.927 -196.485 376.744 -313.399C379.013 -458.614 336.462 -567.589 240.432 -752.271C183.043 -862.632 90.7369 -1021.81 -29.173 -1231.3" stroke="white" stroke-width="3" stroke-miterlimit="10"/>
<path d="M202.819 706.529C106.825 527.163 134.932 390.68 134.688 333.625C134.261 233.625 172.538 162.858 235.565 20.8482C314.289 -156.498 360.995 -194.684 366.17 -307.433C373.018 -456.083 329.694 -571.069 236.454 -762.909C181.955 -875.05 93.7345 -1036.13 -25.16 -1241.26" stroke="white" stroke-width="3" stroke-miterlimit="10"/>
<path d="M229.834 714.268C120.359 537.377 136.756 395.693 134.964 340.632C131.623 237.853 168.521 161.982 230.03 13.9021C305.045 -166.748 346.732 -193.088 355.16 -301.766C366.935 -453.626 322.348 -574.743 232.128 -773.678C180.479 -887.568 96.462 -1050.51 -21.3138 -1251.21" stroke="white" stroke-width="3" stroke-miterlimit="10"/>
<path d="M256.813 722.009C133.91 547.588 131.869 400.63 135.31 347.63C142.116 243.244 164.699 161.121 224.577 6.96111C296.016 -177.014 332.712 -191.334 344.26 -296.13C361.31 -450.972 314.925 -578.433 227.855 -784.463C178.97 -900.125 99.2109 -1064.88 -17.4824 -1261.16" stroke="white" stroke-width="3" stroke-miterlimit="10"/>
<path d="M283.764 729.749C147.471 557.79 136.163 407.479 135.722 354.63C134.818 245.974 161.063 160.29 219.222 0.0401516C287.19 -187.275 318.922 -189.382 333.496 -290.5C356.208 -448.065 307.521 -582.125 223.699 -795.215C177.494 -912.677 102.023 -1079.22 -13.5922 -1271.11" stroke="white" stroke-width="3" stroke-miterlimit="10"/>
<path d="M310.693 737.491C161.043 567.98 140.424 414.756 136.188 361.618C127.212 249.176 157.602 159.466 213.953 -6.87943C278.547 -197.567 305.314 -187.235 322.847 -284.896C351.556 -444.886 300.05 -585.849 219.613 -805.979C176.033 -925.258 104.86 -1093.57 -9.69419 -1281.07" stroke="white" stroke-width="3" stroke-miterlimit="10"/>
</g>
<g opacity="0.05">
<path d="M-3.69084 254.718C122.227 62.3217 254.603 -17.4892 357.275 -53.7648C442.872 -84.0009 473.107 -71.6996 540.505 -112.51C686.757 -201.076 819.245 -425.446 739.689 -587.454C700.499 -667.26 631.517 -668.668 514.836 -743.125C409.875 -810.107 271.66 -933.95 143.834 -1184.1" stroke="white" stroke-width="3" stroke-miterlimit="10"/>
<path d="M23.1147 264.762C136.361 74.006 262.196 -7.06154 359.257 -45.4529C440.946 -77.7481 470.009 -72.0715 537.274 -117.088C678.383 -211.522 804.628 -421.779 731.942 -581.513C694.507 -663.79 628.102 -672.817 512.605 -752.202C410.923 -822.093 275.394 -946.452 148.251 -1192.98" stroke="white" stroke-width="3" stroke-miterlimit="10"/>
<path d="M49.9788 274.816C150.527 85.7111 269.851 3.30289 361.248 -37.1399C439.111 -71.593 466.891 -72.3369 534.044 -121.683C670.073 -221.642 790.245 -418.416 724.192 -575.576C688.504 -660.478 624.73 -676.85 510.378 -761.3C411.985 -833.973 279.152 -958.976 152.699 -1201.88" stroke="white" stroke-width="3" stroke-miterlimit="10"/>
<path d="M76.9134 284.883C164.733 97.4336 277.576 13.5754 363.271 -28.8058C437.362 -65.4782 463.772 -72.4752 530.81 -126.301C661.847 -231.457 776.115 -415.328 716.43 -569.632C682.524 -657.302 621.389 -680.761 508.15 -770.416C413.047 -845.708 282.922 -971.52 157.143 -1210.77" stroke="white" stroke-width="3" stroke-miterlimit="10"/>
<path d="M103.91 294.957C178.967 109.146 285.348 23.724 365.259 -20.4756C435.691 -59.4378 460.669 -72.5332 527.567 -130.884C653.702 -240.938 762.235 -412.439 708.648 -563.638C676.545 -654.225 618.044 -684.507 505.912 -779.501C414.09 -857.293 286.691 -984.042 161.61 -1219.63" stroke="white" stroke-width="3" stroke-miterlimit="10"/>
<path d="M130.977 305.041C193.239 120.913 293.175 33.7388 367.274 -12.1261C434.107 -53.4935 457.586 -72.4256 524.323 -135.498C645.672 -250.171 748.616 -409.776 700.861 -557.647C670.62 -651.275 614.693 -688.108 503.677 -788.611C415.113 -868.768 290.477 -996.585 166.054 -1228.52" stroke="white" stroke-width="3" stroke-miterlimit="10"/>
<path d="M158.112 315.133C207.53 132.67 301.019 43.5742 369.295 -3.7663C432.6 -47.6598 454.543 -72.2279 521.075 -140.113C637.753 -259.169 735.259 -407.284 693.056 -551.643C664.761 -648.422 611.322 -691.624 501.441 -797.725C416.099 -880.132 294.275 -1009.15 170.528 -1237.41" stroke="white" stroke-width="3" stroke-miterlimit="10"/>
<path d="M185.326 325.219C221.897 144.436 308.886 53.1962 371.327 4.58812C431.158 -41.9851 451.56 -71.9537 517.827 -144.749C629.958 -267.965 722.159 -404.956 685.241 -545.642C658.993 -645.673 607.912 -694.999 499.203 -806.861C417.046 -891.38 298.088 -1021.69 175.01 -1246.3" stroke="white" stroke-width="3" stroke-miterlimit="10"/>
<path d="M212.602 335.342C236.281 156.241 316.726 62.6202 373.363 12.9856C429.758 -36.4564 448.65 -71.5085 514.563 -149.366C622.281 -276.562 709.305 -402.716 677.407 -539.594C653.325 -642.974 604.428 -698.22 496.954 -815.97C417.942 -902.539 301.887 -1034.26 179.503 -1255.21" stroke="white" stroke-width="3" stroke-miterlimit="10"/>
<path d="M239.945 345.451C250.696 168.034 324.51 71.7775 375.394 21.3703C428.36 -31.1028 445.765 -71.0175 511.288 -154.004C614.711 -284.999 696.671 -400.56 669.546 -533.556C647.771 -640.328 600.86 -701.348 494.694 -825.105C418.767 -913.615 305.7 -1046.85 183.987 -1264.08" stroke="white" stroke-width="3" stroke-miterlimit="10"/>
<path d="M267.389 355.575C265.176 179.827 332.238 80.679 377.455 29.7662C426.964 -25.9742 443.003 -70.4296 508.025 -158.647C607.286 -293.314 684.289 -398.462 661.695 -527.497C642.393 -637.724 597.218 -704.357 492.451 -834.238C419.553 -924.607 309.543 -1059.43 188.514 -1272.96" stroke="white" stroke-width="3" stroke-miterlimit="10"/>
<path d="M294.895 365.7C279.674 191.668 339.839 89.3136 379.511 38.1723C425.48 -21.0788 440.323 -69.7773 504.749 -163.294C599.968 -301.526 672.103 -396.399 653.813 -521.43C637.18 -635.14 593.461 -707.272 490.197 -843.377C420.263 -935.546 313.382 -1072.02 193.029 -1281.85" stroke="white" stroke-width="3" stroke-miterlimit="10"/>
<path d="M322.485 375.833C294.222 203.501 347.286 97.7008 381.579 46.5887C423.858 -16.4283 437.727 -69.0186 501.467 -167.95C592.764 -309.655 660.116 -394.334 645.915 -515.355C632.162 -632.543 589.588 -710.1 487.935 -852.522C420.905 -946.434 317.235 -1084.61 197.558 -1290.74" stroke="white" stroke-width="3" stroke-miterlimit="10"/>
<path d="M350.152 385.968C308.813 215.339 354.552 105.858 383.651 55.0105C422.017 -12.0325 435.233 -68.2133 498.173 -172.604C585.662 -317.712 648.285 -392.249 638.001 -509.256C627.374 -629.942 585.58 -712.844 485.667 -861.665C421.473 -957.293 321.087 -1097.22 202.107 -1299.62" stroke="white" stroke-width="3" stroke-miterlimit="10"/>
<path d="M377.9 396.109C323.442 227.189 361.607 113.832 385.726 63.4569C419.865 -7.85823 432.831 -67.3363 494.874 -177.265C578.664 -325.727 636.651 -390.1 630.064 -503.146C622.83 -627.277 581.434 -715.526 483.383 -870.815C421.954 -968.109 324.955 -1109.82 206.631 -1308.5" stroke="white" stroke-width="3" stroke-miterlimit="10"/>
<path d="M405.736 406.255C338.122 239.029 368.434 121.677 387.814 71.8771C417.315 -3.92616 430.537 -66.4412 491.569 -181.955C571.777 -333.719 625.151 -387.914 622.117 -497.05C618.565 -624.563 577.159 -718.174 481.124 -879.986C422.39 -978.947 328.852 -1122.45 211.208 -1317.4" stroke="white" stroke-width="3" stroke-miterlimit="10"/>
<path d="M433.659 416.382C352.844 250.898 388.808 133.888 389.915 80.3012C391.72 -7.35009 428.348 -65.5109 488.261 -186.658C564.957 -341.718 613.779 -385.622 614.144 -490.928C614.609 -621.725 572.702 -720.784 478.842 -889.151C422.75 -989.762 332.746 -1135.07 215.793 -1326.28" stroke="white" stroke-width="3" stroke-miterlimit="10"/>
<path d="M460.017 424.501C366.254 260.924 391.494 138.524 390.592 87.1108C389.013 -3.00055 424.733 -65.9815 483.252 -192.648C556.346 -350.833 600.496 -384.286 604.116 -485.77C608.914 -619.568 566.198 -724.059 474.918 -898.819C421.565 -1000.97 335.44 -1147.92 219.508 -1335.17" stroke="white" stroke-width="3" stroke-miterlimit="10"/>
<path d="M485.903 432.028C379.297 270.406 393.294 143.08 390.938 93.4314C386.544 0.755871 420.887 -66.8516 477.885 -199.019C547.398 -360.257 586.895 -383.138 593.67 -480.888C603.134 -617.477 559.141 -727.519 470.662 -908.608C420.009 -1012.28 337.876 -1160.81 223.064 -1344.05" stroke="white" stroke-width="3" stroke-miterlimit="10"/>
<path d="M511.756 439.552C392.357 279.882 388.687 147.428 391.351 99.7428C396.627 5.82704 417.228 -67.7067 472.598 -205.385C538.657 -369.692 573.529 -381.844 583.329 -476.033C597.795 -615.202 552.01 -730.996 466.456 -918.414C418.423 -1023.63 340.333 -1173.71 226.607 -1352.95" stroke="white" stroke-width="3" stroke-miterlimit="10"/>
<path d="M537.581 447.077C405.424 289.351 392.866 153.686 391.825 106.058C389.689 8.13748 413.746 -68.5298 467.403 -211.731C530.109 -379.118 560.384 -380.368 573.115 -471.181C592.957 -612.687 544.897 -734.474 462.361 -928.187C416.865 -1034.97 342.849 -1186.57 230.204 -1361.83" stroke="white" stroke-width="3" stroke-miterlimit="10"/>
<path d="M563.385 454.604C418.503 298.812 397.02 160.33 392.352 112.366C382.464 10.8688 410.432 -69.342 462.29 -218.072C521.736 -388.567 547.415 -378.711 563.013 -466.348C588.552 -609.917 537.719 -737.981 458.333 -937.969C415.323 -1046.33 345.39 -1199.44 233.81 -1370.72" stroke="white" stroke-width="3" stroke-miterlimit="10"/>
<path d="M-270.739 372.694C-136.212 156.113 3.54596 64.3652 111.595 21.6541C201.674 -13.9464 233.18 -1.00849 304.339 -47.916C458.753 -149.712 600.598 -401.945 519.465 -579.908C479.498 -667.573 407.255 -667.498 286.039 -747.384C176.998 -819.25 33.8967 -953.45 -96.601 -1228.11" stroke="white" stroke-width="3" stroke-miterlimit="10"/>
<path d="M-242.797 383.206C-121.566 168.747 11.3568 75.7594 113.557 30.8329C199.57 -6.96066 229.939 -1.34935 301.016 -52.9227C450.121 -161.111 585.234 -397.528 511.267 -573.13C473.172 -663.581 403.732 -672.024 283.824 -757.409C178.258 -832.582 37.978 -967.419 -91.8545 -1238.08" stroke="white" stroke-width="3" stroke-miterlimit="10"/>
<path d="M-214.791 393.73C-106.885 181.405 19.2359 87.0844 115.531 40.015C197.566 -0.083261 226.676 -1.5692 297.695 -57.9467C441.555 -172.148 570.123 -393.452 503.069 -566.354C466.84 -659.761 400.256 -676.42 281.617 -767.455C179.534 -845.796 42.0858 -981.412 -87.072 -1248.07" stroke="white" stroke-width="3" stroke-miterlimit="10"/>
<path d="M-186.712 404.264C-92.1622 194.081 27.1891 98.304 117.536 49.2184C195.651 6.74597 223.412 -1.64938 294.371 -62.9974C433.072 -182.85 555.278 -389.689 494.857 -559.572C460.533 -656.094 396.809 -680.683 279.407 -777.523C180.807 -858.85 46.2067 -995.427 -82.2948 -1258.04" stroke="white" stroke-width="3" stroke-miterlimit="10"/>
<path d="M-158.57 414.807C-77.4125 206.746 35.191 109.387 119.504 58.4199C193.816 13.4924 220.161 -1.63896 291.036 -68.0071C424.668 -193.181 540.698 -386.152 486.622 -552.732C454.226 -652.534 393.356 -684.761 277.185 -787.556C182.056 -871.734 50.3242 -1009.42 -77.4964 -1267.98" stroke="white" stroke-width="3" stroke-miterlimit="10"/>
<path d="M-130.352 425.358C-62.6213 219.469 43.2547 120.318 121.502 67.6401C192.078 20.128 216.931 -1.44732 287.701 -73.0528C416.383 -203.241 526.397 -382.873 478.384 -545.896C447.98 -649.12 389.896 -688.681 274.969 -797.616C183.284 -884.498 54.4626 -1023.43 -72.7182 -1277.96" stroke="white" stroke-width="3" stroke-miterlimit="10"/>
<path d="M-102.065 435.919C-47.8108 232.183 51.3373 131.052 123.505 76.8744C190.419 26.6417 213.74 -1.15388 284.361 -78.0971C408.209 -213.04 512.37 -379.787 470.126 -539.045C441.804 -645.811 386.411 -692.502 272.75 -807.68C184.472 -897.136 58.6114 -1037.47 -67.9112 -1287.93" stroke="white" stroke-width="3" stroke-miterlimit="10"/>
<path d="M-73.6943 446.467C-32.9216 244.903 59.4462 141.546 125.519 86.0996C188.83 32.9747 210.61 -0.779795 281.02 -83.1682C400.162 -222.621 498.614 -376.893 461.856 -532.198C435.722 -642.624 382.885 -696.169 270.529 -817.77C185.616 -909.647 62.7758 -1051.48 -63.0964 -1297.91" stroke="white" stroke-width="3" stroke-miterlimit="10"/>
<path d="M-45.2581 457.058C-18.0143 257.667 67.5318 151.822 127.538 95.3742C187.289 39.1461 207.557 -0.215912 277.665 -88.2152C392.238 -231.982 485.119 -374.1 453.569 -525.298C429.749 -639.492 379.279 -699.662 268.298 -827.829C186.707 -922.056 66.9271 -1065.53 -58.2671 -1307.9" stroke="white" stroke-width="3" stroke-miterlimit="10"/>
<path d="M-16.753 467.632C-3.07418 270.416 75.5612 161.804 129.552 104.635C185.751 45.1235 204.528 0.398482 274.297 -93.2854C384.422 -241.168 471.855 -371.406 445.251 -518.406C423.895 -636.422 375.584 -703.048 266.054 -837.915C187.723 -934.371 71.093 -1079.59 -53.4492 -1317.86" stroke="white" stroke-width="3" stroke-miterlimit="10"/>
<path d="M11.8583 478.218C11.9342 283.164 83.5364 171.501 131.597 113.906C184.219 50.8491 201.627 1.11579 270.943 -98.3641C376.758 -250.223 458.856 -368.783 436.945 -511.495C418.226 -633.404 371.811 -706.304 263.83 -848.002C188.696 -946.593 75.2911 -1093.65 -48.5854 -1327.83" stroke="white" stroke-width="3" stroke-miterlimit="10"/>
<path d="M40.5355 488.805C26.961 295.965 91.3808 180.907 133.637 123.189C182.599 56.3195 198.811 1.90405 267.574 -103.444C369.204 -259.165 446.063 -366.203 428.605 -504.572C412.73 -630.412 367.915 -709.45 261.593 -858.094C189.589 -958.753 79.4844 -1107.72 -43.735 -1337.8" stroke="white" stroke-width="3" stroke-miterlimit="10"/>
<path d="M69.2996 499.398C42.0397 308.755 99.0686 190.04 135.688 132.483C180.836 61.5206 196.081 2.80779 264.2 -108.536C361.769 -268.019 433.477 -363.626 420.249 -497.64C407.439 -627.409 363.897 -712.497 259.349 -868.192C190.41 -970.856 83.6925 -1121.79 -38.8692 -1347.78" stroke="white" stroke-width="3" stroke-miterlimit="10"/>
<path d="M98.1419 509.993C57.161 321.551 106.567 198.924 137.741 141.784C178.846 66.4443 193.455 3.76108 260.81 -113.624C354.437 -276.795 421.053 -361.03 411.874 -490.681C402.385 -624.408 359.733 -715.448 257.095 -878.289C191.151 -982.925 87.8971 -1135.88 -33.9844 -1357.75" stroke="white" stroke-width="3" stroke-miterlimit="10"/>
<path d="M127.073 520.592C72.3257 334.36 113.849 207.61 139.801 151.112C176.536 71.1303 190.928 4.79254 257.42 -118.719C347.216 -285.525 408.837 -358.367 403.477 -483.708C397.59 -621.341 355.427 -718.327 254.828 -888.391C191.803 -994.943 92.1208 -1149.96 -29.1232 -1367.71" stroke="white" stroke-width="3" stroke-miterlimit="10"/>
<path d="M156.095 531.192C87.5433 347.154 120.894 216.155 141.875 160.409C173.811 75.5548 188.513 5.83948 254.021 -123.848C340.11 -294.235 396.761 -355.668 395.069 -476.753C393.086 -618.228 350.986 -721.166 252.587 -898.52C192.408 -1006.99 96.3759 -1164.07 -24.2075 -1377.7" stroke="white" stroke-width="3" stroke-miterlimit="10"/>
<path d="M185.207 541.772C102.803 359.979 142.072 229.227 143.961 169.711C147.046 72.3615 186.208 6.9239 250.62 -128.991C333.075 -302.954 384.817 -352.854 386.634 -469.768C388.903 -614.983 346.352 -723.958 250.321 -908.64C192.933 -1019 100.627 -1178.18 -19.2833 -1387.67" stroke="white" stroke-width="3" stroke-miterlimit="10"/>
<path d="M212.709 550.16C116.714 370.794 144.822 234.311 144.577 177.256C144.151 77.2561 182.427 6.48904 245.454 -135.521C324.179 -312.867 370.885 -351.053 376.06 -463.802C382.908 -612.452 339.583 -727.438 246.343 -919.278C191.844 -1031.42 103.624 -1192.5 -15.2703 -1397.63" stroke="white" stroke-width="3" stroke-miterlimit="10"/>
<path d="M239.723 557.899C130.249 381.008 146.646 239.324 144.854 184.263C141.513 81.4835 178.411 5.61297 239.92 -142.467C314.935 -323.117 356.621 -349.457 365.05 -458.135C376.824 -609.995 332.238 -731.112 242.017 -930.047C190.368 -1043.94 106.352 -1206.88 -11.4242 -1407.58" stroke="white" stroke-width="3" stroke-miterlimit="10"/>
<path d="M266.703 565.639C143.8 391.219 141.759 244.261 145.2 191.261C152.006 86.8746 174.589 4.75151 234.466 -149.408C305.905 -333.383 342.601 -347.703 354.15 -452.499C371.2 -607.342 324.815 -734.802 237.744 -940.832C188.86 -1056.49 109.101 -1221.25 -7.59273 -1417.53" stroke="white" stroke-width="3" stroke-miterlimit="10"/>
<path d="M293.654 573.379C157.361 401.42 146.053 251.11 145.612 198.261C144.708 89.6044 170.953 3.92052 229.112 -156.329C297.08 -343.644 328.812 -345.751 343.386 -446.87C366.098 -604.435 317.411 -738.494 233.589 -951.584C187.383 -1069.05 111.912 -1235.59 -3.70259 -1427.48" stroke="white" stroke-width="3" stroke-miterlimit="10"/>
<path d="M320.583 581.122C170.933 411.611 150.314 258.386 146.078 205.249C137.102 92.8073 167.492 3.09668 223.842 -163.249C288.437 -353.936 315.203 -343.604 332.737 -441.265C361.445 -601.255 309.94 -742.218 229.503 -962.348C185.922 -1081.63 114.749 -1249.94 0.195457 -1437.44" stroke="white" stroke-width="3" stroke-miterlimit="10"/>
</g>
</g>
<defs>
<clipPath id="clip0_239_5474">
<path d="M0 199C0 89.0953 89.0953 0 199 0V0C308.905 0 398 89.0953 398 199V432H0V199Z" fill="white"/>
</clipPath>
</defs>
</svg>
