<svg width="22" height="20" viewBox="0 0 22 20" fill="none" xmlns="http://www.w3.org/2000/svg">
<path d="M11.1503 14.535C11.739 14.535 12.29 14.38 12.8033 14.07C13.3166 13.7607 13.5733 13.254 13.5733 12.55C13.5733 11.99 13.3883 11.55 13.0183 11.23C12.6483 10.91 11.9256 10.5527 10.8503 10.158C9.77696 9.76933 9.01463 9.359 8.5633 8.927C8.1113 8.495 7.8853 7.91933 7.8853 7.2C7.8853 6.59333 8.11296 6.03333 8.5683 5.52C9.02363 5.00667 9.6793 4.686 10.5353 4.558V3.875C10.5353 3.74433 10.5843 3.63 10.6823 3.532C10.7803 3.434 10.8946 3.38467 11.0253 3.384C11.156 3.38333 11.2703 3.43267 11.3683 3.532C11.4663 3.63133 11.5153 3.74567 11.5153 3.875V4.558C11.9733 4.59133 12.4033 4.73467 12.8053 4.988C13.2073 5.24133 13.5396 5.56333 13.8023 5.954C13.8676 6.04733 13.876 6.147 13.8273 6.253C13.7786 6.359 13.6953 6.43433 13.5773 6.479C13.4633 6.52367 13.346 6.532 13.2253 6.504C13.1046 6.476 13.0033 6.40867 12.9213 6.302C12.7033 6.038 12.4406 5.82433 12.1333 5.661C11.8253 5.49767 11.4643 5.416 11.0503 5.416C10.3903 5.416 9.86096 5.58567 9.4623 5.925C9.06363 6.26433 8.86463 6.68933 8.8653 7.2C8.86596 7.71067 9.0193 8.10367 9.3253 8.379C9.6313 8.65433 10.336 8.98433 11.4393 9.369C12.6393 9.80233 13.452 10.2657 13.8773 10.759C14.3033 11.253 14.5163 11.85 14.5163 12.55C14.5163 13.0207 14.423 13.433 14.2363 13.787C14.051 14.1403 13.811 14.4337 13.5163 14.667C13.2223 14.8997 12.8953 15.079 12.5353 15.205C12.1753 15.331 11.8186 15.41 11.4653 15.442V16.125C11.4653 16.2557 11.4163 16.37 11.3183 16.468C11.2203 16.566 11.106 16.6153 10.9753 16.616C10.8446 16.6167 10.7303 16.5673 10.6323 16.468C10.5343 16.3687 10.4853 16.2543 10.4853 16.125V15.392C9.88996 15.2587 9.3673 15.0313 8.9173 14.71C8.4673 14.3887 8.0963 13.9573 7.8043 13.416C7.74296 13.298 7.73763 13.1753 7.7883 13.048C7.83896 12.9213 7.9233 12.8357 8.0413 12.791C8.15463 12.7457 8.27496 12.7433 8.4023 12.784C8.52896 12.824 8.6253 12.8993 8.6913 13.01C8.9753 13.4947 9.32863 13.87 9.7513 14.136C10.174 14.402 10.6403 14.535 11.1503 14.535ZM11.0003 20C8.96696 20 7.14463 19.4597 5.5333 18.379C3.9213 17.2983 2.7113 15.8443 1.9033 14.017V16.807C1.9033 16.9497 1.85596 17.069 1.7613 17.165C1.66663 17.261 1.54763 17.3087 1.4043 17.308C1.26096 17.3073 1.14196 17.2597 1.0473 17.165C0.95263 17.0703 0.904964 16.9513 0.904297 16.808V13.116C0.904297 12.8833 0.980964 12.6907 1.1343 12.538C1.28763 12.3847 1.4803 12.308 1.7123 12.308H5.4043C5.5463 12.308 5.6653 12.3557 5.7613 12.451C5.8573 12.5463 5.90496 12.6653 5.9043 12.808C5.90363 12.9507 5.85596 13.0697 5.7613 13.165C5.66663 13.2603 5.54763 13.308 5.4043 13.308H2.6983C3.34496 15.0207 4.42796 16.3973 5.9473 17.438C7.4673 18.4793 9.15163 19 11.0003 19C13.299 19 15.291 18.2487 16.9763 16.746C18.6616 15.2433 19.6466 13.3377 19.9313 11.029C19.9513 10.8777 20.0103 10.7517 20.1083 10.651C20.2056 10.5503 20.33 10.5 20.4813 10.5C20.6233 10.5 20.74 10.5553 20.8313 10.666C20.922 10.7773 20.9573 10.9067 20.9373 11.054C20.8073 12.3167 20.4596 13.49 19.8943 14.574C19.329 15.658 18.603 16.603 17.7163 17.409C16.8296 18.215 15.8126 18.8483 14.6653 19.309C13.518 19.7697 12.2963 20 11.0003 20ZM11.0003 1C8.7783 1 6.80863 1.729 5.0913 3.187C3.37396 4.645 2.36696 6.56667 2.0703 8.952C2.0503 9.10333 1.9913 9.23267 1.8933 9.34C1.79596 9.44667 1.67163 9.5 1.5203 9.5C1.36496 9.5 1.24496 9.44467 1.1603 9.334C1.0763 9.22267 1.0443 9.087 1.0643 8.927C1.21963 7.613 1.58963 6.41067 2.1743 5.32C2.75896 4.23 3.49496 3.29167 4.3823 2.505C5.26963 1.71833 6.27996 1.10433 7.4133 0.663C8.54663 0.221667 9.7423 0.000666667 11.0003 0C12.995 0 14.8173 0.543333 16.4673 1.63C18.1173 2.71667 19.3273 4.19333 20.0973 6.06V3.192C20.0973 3.05 20.145 2.93133 20.2403 2.836C20.3356 2.74067 20.4543 2.69267 20.5963 2.692C20.7383 2.69133 20.8573 2.73933 20.9533 2.836C21.0493 2.93267 21.097 3.05133 21.0963 3.192V6.885C21.0963 7.117 21.0196 7.30967 20.8663 7.463C20.713 7.61633 20.5206 7.693 20.2893 7.693H16.5963C16.4543 7.693 16.3356 7.645 16.2403 7.549C16.145 7.453 16.097 7.334 16.0963 7.192C16.0956 7.05 16.1436 6.93133 16.2403 6.836C16.337 6.74067 16.4556 6.69267 16.5963 6.692H19.3023C18.695 5.03067 17.628 3.66667 16.1013 2.6C14.5746 1.53333 12.8743 1 11.0003 1Z" fill="#00FF48"/>
</svg>
