<svg width="18" height="20" viewBox="0 0 18 20" fill="none" xmlns="http://www.w3.org/2000/svg">
<path d="M9.00074 0C3.95339 0 0 2.32392 0 5.29296V14.7055C0 17.6746 3.95191 20 8.99926 20C14.0466 20 18 17.6746 18 14.7055V5.29448C18 2.32544 14.0466 0.0015178 8.99926 0.0015178M8.99926 1.1779C13.255 1.1779 16.8497 3.06315 16.8497 5.29448C16.8497 7.5258 13.255 9.41257 8.99926 9.41257C4.74347 9.41257 1.14733 7.52732 1.14733 5.29448C1.14733 3.06163 4.74347 1.17638 9.00074 1.17638M16.8512 14.7055C16.8512 16.9384 13.2565 18.8236 9.00074 18.8236C4.74496 18.8236 1.14881 16.9384 1.14881 14.707V12.6275C2.68006 14.2335 5.58989 15.2945 9.00074 15.2945C12.4116 15.2945 15.3214 14.2335 16.8512 12.6275V14.7055ZM16.8512 10.0015C16.8512 12.2328 13.2565 14.1181 9.00074 14.1181C4.74496 14.1181 1.14881 12.2328 1.14881 10.0015V7.91894C2.68006 9.52338 5.58989 10.5859 9.00074 10.5859C12.4116 10.5859 15.3214 9.52338 16.8512 7.91894V10.0015Z" fill="#289626"/>
</svg>
