<svg width="16" height="14" viewBox="0 0 16 14" fill="none" xmlns="http://www.w3.org/2000/svg">
<path d="M12.4133 7.0805L13.828 5.6665M13.828 5.6665L15.242 4.2525M13.828 5.6665L12.4127 4.2525M13.828 5.6665L15.242 7.0805M0.666016 12.3332V11.6665C0.666016 10.4288 1.15768 9.24184 2.03285 8.36667C2.90802 7.4915 4.09501 6.99984 5.33268 6.99984M5.33268 6.99984C6.57036 6.99984 7.75734 7.4915 8.63251 8.36667C9.50768 9.24184 9.99935 10.4288 9.99935 11.6665V12.3332M5.33268 6.99984C6.03993 6.99984 6.7182 6.71889 7.2183 6.21879C7.7184 5.71869 7.99935 5.04041 7.99935 4.33317C7.99935 3.62593 7.7184 2.94765 7.2183 2.44755C6.7182 1.94746 6.03993 1.6665 5.33268 1.6665C4.62544 1.6665 3.94716 1.94746 3.44706 2.44755C2.94697 2.94765 2.66602 3.62593 2.66602 4.33317C2.66602 5.04041 2.94697 5.71869 3.44706 6.21879C3.94716 6.71889 4.62544 6.99984 5.33268 6.99984Z" stroke="#D73131" stroke-width="1.5" stroke-linecap="round" stroke-linejoin="round"/>
</svg>
