<svg width="16" height="22" viewBox="0 0 16 22" fill="none" xmlns="http://www.w3.org/2000/svg">
<path d="M5.64385 1.6665H3.33333C2.71449 1.6665 2.121 1.91234 1.68342 2.34992C1.24583 2.78751 1 3.381 1 3.99984V17.9998C1 18.6187 1.24583 19.2122 1.68342 19.6498C2.121 20.0873 2.71449 20.3332 3.33333 20.3332H12.6667C13.2855 20.3332 13.879 20.0873 14.3166 19.6498C14.7542 19.2122 15 18.6187 15 17.9998V10.9998M5.64385 1.6665C6.93289 1.6665 8 2.7108 8 3.99984V6.33317C8 6.95201 8.24583 7.5455 8.68342 7.98309C9.121 8.42067 9.71449 8.6665 10.3333 8.6665H12.6667C13.2855 8.6665 13.879 8.91234 14.3166 9.34992C14.7542 9.78751 15 10.381 15 10.9998M5.64385 1.6665C9.47052 1.6665 15 7.22502 15 10.9998M5.14815 15.6665H11.3704M5.14815 12.5554H9.2963" stroke="#FF6600" stroke-width="1.5" stroke-linecap="round" stroke-linejoin="round"/>
</svg>
