<svg width="19" height="19" viewBox="0 0 19 19" fill="none" xmlns="http://www.w3.org/2000/svg">
<path d="M3.69954 15.4275C2.12042 16.1084 1.34952 17.0337 1.03659 17.68C0.912537 17.9356 1.121 18.1884 1.40502 18.1884H11.3069C11.6529 18.1884 11.8721 17.8265 11.6702 17.5448C10.8541 16.4078 9.62565 15.6901 8.976 15.4219C8.92324 15.4001 8.86658 15.3893 8.80951 15.3902H3.88002C3.81798 15.3905 3.75662 15.4032 3.69954 15.4275Z" stroke="#96B0FF" stroke-linecap="round" stroke-linejoin="round"/>
<path d="M5.4043 6.92838L7.73613 2.88965L11.7749 5.22148L9.44302 9.2602L5.4043 6.92838Z" stroke="#96B0FF" stroke-linejoin="round"/>
<path d="M18.5449 11.9375C18.2456 12.4064 17.7838 12.7499 17.2441 12.8945C16.7046 13.039 16.1332 12.9731 15.6396 12.7168L16.4746 11.2705C16.5129 11.2844 16.5522 11.2954 16.5928 11.3008C16.6665 11.3105 16.7417 11.3053 16.8135 11.2861C16.8852 11.2669 16.9528 11.2337 17.0117 11.1885C17.0441 11.1636 17.0724 11.1336 17.0986 11.1025L18.5449 11.9375ZM16.2959 11.1787L15.4639 12.6211L9.5791 9.22363L9.94531 8.58887L10.667 9.00586L10.7539 9.05566L10.8037 8.96875L11.2197 8.24805L16.2959 11.1787ZM17.8662 8.85938C18.3354 9.15872 18.6786 9.6214 18.8232 10.1611C18.9678 10.7006 18.9009 11.272 18.6445 11.7656L17.1992 10.9307C17.213 10.8924 17.2232 10.853 17.2285 10.8125C17.2382 10.7387 17.2332 10.6636 17.2139 10.5918C17.1946 10.5201 17.1615 10.4525 17.1162 10.3936C17.0912 10.3611 17.0625 10.3319 17.0312 10.3057L17.8662 8.85938ZM17.6953 8.75488L16.8633 10.1973L11.7861 7.2666L12.2031 6.5459L12.2529 6.45898L12.166 6.40918L11.4443 5.99219L11.8105 5.3584L17.6953 8.75488ZM9.77148 8.48828L9.40918 9.11719C9.26134 9.00594 9.15287 8.84854 9.10449 8.66797C9.05612 8.48718 9.07087 8.29637 9.14355 8.12598L9.77148 8.48828ZM11.0459 8.14746L10.6807 8.78223L10.0449 8.41504L10.4111 7.78125L11.0459 8.14746ZM11.1719 6.06543L10.7559 6.78711L10.7051 6.87402L10.792 6.92383L11.5127 7.33984L11.1465 7.97461L10.4258 7.55859L10.3389 7.50781L10.2891 7.59473L9.87207 8.31543L9.23828 7.94922L10.5361 5.69922L11.1719 6.06543ZM11.9785 6.53125L11.6123 7.16699L10.9775 6.80078L11.3447 6.16504L11.9785 6.53125ZM11.0928 5.22461C11.2736 5.17618 11.4644 5.19103 11.6348 5.26367L11.4131 5.64941L11.2715 5.89258L10.6426 5.5293C10.7539 5.38116 10.912 5.27305 11.0928 5.22461Z" fill="#96B0FF" stroke="#96B0FF" stroke-width="0.2"/>
<path d="M12.7709 2.56501L9.53978 0.699549C8.8706 0.313199 8.01493 0.542476 7.62858 1.21165C7.24223 1.88083 7.4715 2.73651 8.14068 3.12286L11.3718 4.98832C12.0409 5.37467 12.8966 5.14539 13.283 4.47621C13.6693 3.80704 13.44 2.95136 12.7709 2.56501Z" stroke="#96B0FF" stroke-linejoin="round"/>
<path d="M9.04039 9.02693L5.80931 7.16146C5.14013 6.77511 4.28446 7.00439 3.89811 7.67357C3.51176 8.34275 3.74103 9.19842 4.41021 9.58477L7.64129 11.4502C8.31047 11.8366 9.16614 11.6073 9.55249 10.9381C9.93884 10.2689 9.70956 9.41328 9.04039 9.02693Z" stroke="#96B0FF" stroke-linejoin="round"/>
</svg>
