<svg width="17" height="18" viewBox="0 0 17 18" fill="none" xmlns="http://www.w3.org/2000/svg">
<path d="M12.0001 16.5201V14.3676C12.0282 14.01 11.9799 13.6504 11.8583 13.3129C11.7368 12.9754 11.5448 12.6677 11.2951 12.4101C13.6501 12.1476 16.1251 11.2551 16.1251 7.16009C16.1249 6.11296 15.7221 5.10599 15.0001 4.34759C15.3419 3.43147 15.3178 2.41886 14.9326 1.52009C14.9326 1.52009 14.0476 1.25759 12.0001 2.63009C10.281 2.16493 8.46915 2.16493 6.75006 2.63009C4.70256 1.25759 3.81756 1.52009 3.81756 1.52009C3.43234 2.41886 3.40817 3.43147 3.75006 4.34759C3.02265 5.11162 2.61945 6.12769 2.62506 7.18259C2.62506 11.2476 5.10006 12.1401 7.45506 12.4326C7.20831 12.6876 7.01801 12.9916 6.89654 13.325C6.77507 13.6584 6.72516 14.0136 6.75006 14.3676V16.5201" stroke="#613EEA" stroke-width="1.5" stroke-linecap="round" stroke-linejoin="round"/>
<path d="M6.75 15.02C4.5 15.7498 2.625 15.02 1.5 12.77" stroke="#613EEA" stroke-width="1.5" stroke-linecap="round" stroke-linejoin="round"/>
</svg>
