<svg width="22" height="22" viewBox="0 0 22 22" fill="none" xmlns="http://www.w3.org/2000/svg">
<path d="M8.50003 1H13.5L14.152 7.517C14.1965 7.95761 14.1481 8.40264 14.0099 8.82339C13.8717 9.24413 13.6469 9.63123 13.3499 9.95971C13.0529 10.2882 12.6903 10.5507 12.2856 10.7304C11.8808 10.9101 11.4429 11.003 11 11.003C10.5572 11.003 10.1193 10.9101 9.71451 10.7304C9.30976 10.5507 8.94719 10.2882 8.65018 9.95971C8.35317 9.63123 8.12833 9.24413 7.99016 8.82339C7.852 8.40264 7.80358 7.95761 7.84803 7.517L8.50003 1Z" stroke="#EA1E63" stroke-width="1.5"/>
<path d="M2.33002 4.351C2.50802 3.461 2.59702 3.016 2.77802 2.655C2.96662 2.27904 3.23217 1.94694 3.55743 1.68025C3.88269 1.41356 4.26039 1.21826 4.66602 1.107C5.05602 1 5.51002 1 6.41802 1H8.50002L7.77502 8.245C7.73676 8.65963 7.61428 9.06209 7.41508 9.42774C7.21588 9.79339 6.94414 10.1145 6.61651 10.3715C6.28888 10.6285 5.91225 10.8159 5.50968 10.9223C5.1071 11.0287 4.68706 11.0518 4.27525 10.9901C3.86344 10.9285 3.46853 10.7835 3.11471 10.564C2.76089 10.3445 2.45559 10.0551 2.21751 9.71345C1.97943 9.37184 1.81357 8.98523 1.73009 8.5773C1.64662 8.16936 1.64727 7.74867 1.73202 7.341L2.33002 4.351ZM19.67 4.351C19.492 3.461 19.403 3.016 19.222 2.655C19.0334 2.27904 18.7679 1.94694 18.4426 1.68025C18.1174 1.41356 17.7397 1.21826 17.334 1.107C16.944 1 16.49 1 15.582 1H13.5L14.225 8.245C14.2633 8.65963 14.3858 9.06209 14.585 9.42774C14.7842 9.79339 15.0559 10.1145 15.3835 10.3715C15.7112 10.6285 16.0878 10.8159 16.4904 10.9223C16.8929 11.0287 17.313 11.0518 17.7248 10.9901C18.1366 10.9285 18.5315 10.7835 18.8853 10.564C19.2392 10.3445 19.5445 10.0551 19.7825 9.71345C20.0206 9.37184 20.1865 8.98523 20.27 8.5773C20.3534 8.16936 20.3528 7.74867 20.268 7.341L19.67 4.351Z" stroke="#EA1E63" stroke-width="1.5"/>
<path opacity="0.5" d="M7.75 20.5C7.75 20.6989 7.82902 20.8897 7.96967 21.0303C8.11032 21.171 8.30109 21.25 8.5 21.25C8.69891 21.25 8.88968 21.171 9.03033 21.0303C9.17098 20.8897 9.25 20.6989 9.25 20.5H7.75ZM12.75 20.5C12.75 20.6989 12.829 20.8897 12.9697 21.0303C13.1103 21.171 13.3011 21.25 13.5 21.25C13.6989 21.25 13.8897 21.171 14.0303 21.0303C14.171 20.8897 14.25 20.6989 14.25 20.5H12.75ZM11.5 20.25H10.5V21.75H11.5V20.25ZM3.25 13V10H1.75V13H3.25ZM18.75 10V13H20.25V10H18.75ZM10.5 20.25C8.593 20.25 7.239 20.248 6.21 20.11C5.205 19.975 4.625 19.721 4.202 19.298L3.142 20.358C3.89 21.108 4.839 21.439 6.011 21.597C7.161 21.752 8.636 21.75 10.5 21.75V20.25ZM1.75 13C1.75 14.864 1.748 16.338 1.903 17.489C2.061 18.661 2.393 19.61 3.141 20.359L4.201 19.299C3.779 18.875 3.525 18.295 3.39 17.289C3.252 16.262 3.25 14.907 3.25 13H1.75ZM11.5 21.75C13.364 21.75 14.838 21.752 15.989 21.597C17.161 21.439 18.11 21.107 18.859 20.359L17.799 19.299C17.375 19.721 16.795 19.975 15.789 20.11C14.761 20.248 13.407 20.25 11.5 20.25V21.75ZM18.75 13C18.75 14.907 18.748 16.262 18.61 17.29C18.475 18.295 18.221 18.875 17.798 19.298L18.858 20.358C19.608 19.61 19.939 18.661 20.097 17.489C20.252 16.339 20.25 14.864 20.25 13H18.75ZM9.25 20.5V17.5H7.75V20.5H9.25ZM12.75 17.5V20.5H14.25V17.5H12.75ZM11 15.75C11.481 15.75 11.792 15.75 12.027 15.772C12.252 15.792 12.334 15.827 12.375 15.851L13.125 14.551C12.818 14.374 12.492 14.308 12.163 14.278C11.843 14.249 11.453 14.25 11 14.25V15.75ZM14.25 17.5C14.25 17.047 14.25 16.656 14.222 16.337C14.192 16.008 14.126 15.682 13.949 15.375L12.649 16.125C12.673 16.165 12.708 16.248 12.728 16.473C12.749 16.708 12.75 17.019 12.75 17.5H14.25ZM12.375 15.851C12.4889 15.917 12.5834 16.0109 12.649 16.125L13.949 15.375C13.7515 15.0327 13.4673 14.7485 13.125 14.551L12.375 15.851ZM9.25 17.5C9.25 17.019 9.25 16.708 9.272 16.473C9.292 16.248 9.327 16.166 9.351 16.125L8.051 15.375C7.874 15.682 7.808 16.008 7.778 16.337C7.749 16.657 7.75 17.047 7.75 17.5H9.25ZM11 14.25C10.547 14.25 10.156 14.25 9.837 14.278C9.508 14.308 9.182 14.374 8.875 14.551L9.625 15.851C9.665 15.827 9.748 15.793 9.973 15.772C10.208 15.751 10.519 15.75 11 15.75V14.25ZM9.351 16.125C9.41703 16.0111 9.51088 15.9166 9.625 15.851L8.875 14.551C8.53274 14.7485 8.24854 15.0327 8.051 15.375L9.351 16.125Z" fill="#EA1E63"/>
</svg>
