<svg width="18" height="18" viewBox="0 0 18 18" fill="none" xmlns="http://www.w3.org/2000/svg">
<path fill-rule="evenodd" clip-rule="evenodd" d="M16.3324 6.11189C16.6984 6.47789 17.0134 6.79389 17.2524 7.07489C17.5044 7.37189 17.7274 7.69389 17.8564 8.08989C18.0489 8.68129 18.0489 9.31849 17.8564 9.90989C17.7274 10.3059 17.5044 10.6279 17.2524 10.9249C17.0134 11.2059 16.6984 11.5219 16.3324 11.8869L11.8874 16.3319C11.5224 16.6979 11.2074 17.0129 10.9254 17.2519C10.6284 17.5039 10.3064 17.7269 9.91038 17.8559C9.31898 18.0484 8.68177 18.0484 8.09038 17.8559C7.69438 17.7269 7.37238 17.5039 7.07538 17.2519C6.74348 16.9572 6.42259 16.6503 6.11338 16.3319L1.66838 11.8869C1.34996 11.5777 1.04308 11.2568 0.748378 10.9249C0.496378 10.6279 0.273378 10.3059 0.144378 9.90989C-0.0481261 9.31849 -0.0481261 8.68129 0.144378 8.08989C0.273378 7.69389 0.496378 7.37189 0.748378 7.07489C0.987378 6.79389 1.30238 6.47789 1.66838 6.11189L6.11238 1.66789C6.47838 1.30189 6.79438 0.98689 7.07538 0.74789C7.37238 0.49589 7.69438 0.27289 8.09038 0.14389C8.68177 -0.0486144 9.31898 -0.0486144 9.91038 0.14389C10.3064 0.27289 10.6284 0.49589 10.9254 0.74789C11.2064 0.98689 11.5224 1.30189 11.8874 1.66789L16.3324 6.11189ZM13.1464 4.31389L11.2204 2.38989C10.4434 1.61289 10.0554 1.22389 9.60638 1.07789C9.21222 0.949626 8.78754 0.949626 8.39338 1.07789C7.94538 1.22389 7.55738 1.61289 6.78038 2.38989L4.85438 4.31389H5.12438C5.69538 4.31389 6.23438 4.56389 6.62238 4.99189L8.54638 7.10889C8.60384 7.17223 8.67392 7.22284 8.7521 7.25747C8.83029 7.29211 8.91486 7.31 9.00038 7.31C9.08589 7.31 9.17047 7.29211 9.24865 7.25747C9.32684 7.22284 9.39692 7.17223 9.45438 7.10889L11.3784 4.99189C11.5671 4.78052 11.7979 4.611 12.0561 4.49423C12.3143 4.37746 12.594 4.31603 12.8774 4.31389H13.1464ZM3.87338 5.29589H5.12338C5.40338 5.29589 5.68338 5.41789 5.89638 5.65189L7.82038 7.76889C7.96987 7.93327 8.15205 8.0646 8.35525 8.15446C8.55846 8.24433 8.77819 8.29075 9.00038 8.29075C9.22257 8.29075 9.4423 8.24433 9.6455 8.15446C9.8487 8.0646 10.0309 7.93327 10.1804 7.76889L12.1044 5.65189C12.2012 5.54189 12.3201 5.45338 12.4532 5.39206C12.5863 5.33075 12.7308 5.29799 12.8774 5.29589H14.1274L15.6114 6.77989C16.3884 7.55689 16.7774 7.94489 16.9234 8.39389C17.0514 8.78789 17.0514 9.21189 16.9234 9.60689C16.7774 10.0549 16.3884 10.4429 15.6114 11.2199L14.1274 12.7039H12.8774C12.5974 12.7039 12.3174 12.5819 12.1044 12.3479L10.1804 10.2299C10.031 10.0654 9.84881 9.93392 9.6456 9.84397C9.44239 9.75401 9.22261 9.70754 9.00038 9.70754C8.77815 9.70754 8.55837 9.75401 8.35516 9.84397C8.15194 9.93392 7.96979 10.0654 7.82038 10.2299L5.89638 12.3469C5.79952 12.4569 5.6807 12.5454 5.54756 12.6067C5.41443 12.668 5.26994 12.7008 5.12338 12.7029H3.87338L2.38938 11.2199C1.61238 10.4429 1.22338 10.0549 1.07738 9.60589C0.949114 9.21173 0.949114 8.78705 1.07738 8.39289C1.22338 7.94489 1.61238 7.55689 2.38938 6.77989L3.87338 5.29589ZM6.78038 15.6099L4.85438 13.6849H5.12438C5.69538 13.6849 6.23438 13.4349 6.62238 13.0069L8.54638 10.8899C8.60384 10.8266 8.67392 10.7759 8.7521 10.7413C8.83029 10.7067 8.91486 10.6888 9.00038 10.6888C9.08589 10.6888 9.17047 10.7067 9.24865 10.7413C9.32684 10.7759 9.39692 10.8266 9.45438 10.8899L11.3784 13.0069C11.5671 13.2183 11.7979 13.3878 12.0561 13.5046C12.3143 13.6213 12.594 13.6828 12.8774 13.6849H13.1464L11.2204 15.6099C10.4434 16.3869 10.0554 16.7759 9.60638 16.9219C9.21222 17.0502 8.78754 17.0502 8.39338 16.9219C7.94538 16.7759 7.55738 16.3879 6.78038 15.6099Z" fill="#50A99A"/>
</svg>
