<svg width="17" height="16" viewBox="0 0 17 16" fill="none" xmlns="http://www.w3.org/2000/svg">
<g opacity="0.2">
<path fill-rule="evenodd" clip-rule="evenodd" d="M13.195 9.222C12.5962 9.09444 11.987 9.02214 11.375 9.006L10.335 9.426C10.5503 9.438 10.772 9.444 11 9.444C11.833 9.444 12.58 9.357 13.195 9.222ZM7.031 10.761C6.477 10.528 6.048 10.246 5.787 9.933C5.601 9.71 5.5 9.471 5.5 9.223L11 7C14.038 7 16.5 7.995 16.5 9.222C16.5 10.45 14.038 11.444 11 11.444C9.44 11.444 8.032 11.182 7.031 10.761Z" fill="white"/>
<path d="M11 15C14.038 15 16.5 14.005 16.5 12.778V9H5.5V12.778C5.5 14.005 7.962 15 11 15Z" fill="white"/>
<path fill-rule="evenodd" clip-rule="evenodd" d="M8.195 3.222C7.47327 3.07038 6.73747 2.99597 6 3C5.167 3 4.42 3.087 3.805 3.222C4.42 3.357 5.167 3.444 6 3.444C6.833 3.444 7.58 3.357 8.195 3.222ZM6 5.444C9.038 5.444 11.5 4.45 11.5 3.222C11.5 1.994 9.038 1 6 1C2.962 1 0.5 1.995 0.5 3.222C0.5 4.45 2.962 5.444 6 5.444Z" fill="white"/>
<path d="M6 8C9.038 8 11.5 7.005 11.5 5.778V2.5H0.5V5.778C0.5 7.005 2.962 8 6 8Z" fill="white"/>
<path fill-rule="evenodd" clip-rule="evenodd" d="M9.5 6.324C9.3839 6.38858 9.26363 6.44537 9.14 6.494C8.437 6.78 7.327 7 6 7C4.673 7 3.563 6.779 2.86 6.495C2.73634 6.44604 2.61608 6.38892 2.5 6.324V5.5H9.5V6.324ZM11.5 3.5V6.778C11.5 8.005 9.038 9 6 9C2.962 9 0.5 8.005 0.5 6.778V3.5H11.5Z" fill="white"/>
</g>
<path fill-rule="evenodd" clip-rule="evenodd" d="M14.702 8.115C13.78 7.742 12.47 7.5 11 7.5V6.5C12.567 6.5 14.008 6.756 15.076 7.187C15.609 7.403 16.074 7.671 16.413 7.996C16.753 8.321 17 8.736 17 9.222C17 9.709 16.754 10.123 16.413 10.449C16.073 10.773 15.609 11.042 15.076 11.257C14.008 11.689 12.566 11.944 11 11.944C9.433 11.944 7.992 11.689 6.924 11.257C6.391 11.042 5.926 10.773 5.587 10.449C5.247 10.123 5 9.709 5 9.222H6C6 9.349 6.062 9.519 6.278 9.726C6.494 9.933 6.836 10.143 7.298 10.33C8.221 10.703 9.529 10.944 11 10.944C12.47 10.944 13.78 10.703 14.702 10.33C15.164 10.143 15.505 9.933 15.722 9.726C15.939 9.519 16 9.349 16 9.222C16 9.095 15.938 8.925 15.722 8.719C15.505 8.511 15.164 8.301 14.702 8.115Z" fill="white"/>
<path fill-rule="evenodd" clip-rule="evenodd" d="M5.5 9.16797C5.63261 9.16797 5.75979 9.22065 5.85355 9.31442C5.94732 9.40818 6 9.53536 6 9.66797V12.778C6 12.906 6.062 13.076 6.278 13.282C6.495 13.49 6.836 13.7 7.298 13.887C8.221 14.259 9.529 14.501 11 14.501C12.47 14.501 13.78 14.259 14.702 13.887C15.164 13.7 15.505 13.49 15.722 13.282C15.938 13.076 16 12.906 16 12.779V9.66797C16 9.53536 16.0527 9.40818 16.1464 9.31442C16.2402 9.22065 16.3674 9.16797 16.5 9.16797C16.6326 9.16797 16.7598 9.22065 16.8536 9.31442C16.9473 9.40818 17 9.53536 17 9.66797V12.778C17 13.266 16.754 13.68 16.413 14.005C16.072 14.33 15.609 14.598 15.076 14.814C14.008 15.245 12.566 15.501 11 15.501C9.433 15.501 7.992 15.245 6.924 14.814C6.391 14.599 5.926 14.33 5.587 14.005C5.247 13.68 5 13.265 5 12.779V9.66797C5 9.53536 5.05268 9.40818 5.14645 9.31442C5.24021 9.22065 5.36739 9.16797 5.5 9.16797Z" fill="white"/>
<path fill-rule="evenodd" clip-rule="evenodd" d="M7.7 14.726V11H8.7V14.726H7.7ZM12.1 14.5V11.5H13.1V14.5H12.1ZM1.278 2.719C1.062 2.925 1 3.095 1 3.222C1 3.349 1.062 3.519 1.278 3.726C1.494 3.933 1.836 4.143 2.298 4.33C3.221 4.703 4.529 4.944 6 4.944C7.47 4.944 8.78 4.703 9.702 4.33C10.164 4.143 10.505 3.933 10.722 3.726C10.939 3.519 11 3.349 11 3.222C11 3.095 10.938 2.925 10.722 2.719C10.505 2.511 10.164 2.301 9.702 2.114C8.779 1.742 7.47 1.5 6 1.5C4.53 1.5 3.22 1.742 2.298 2.114C1.836 2.301 1.495 2.511 1.278 2.719ZM1.924 1.187C2.992 0.756 4.434 0.5 6 0.5C7.567 0.5 9.008 0.756 10.076 1.187C10.609 1.403 11.074 1.671 11.413 1.996C11.753 2.321 12 2.736 12 3.222C12 3.709 11.754 4.123 11.413 4.449C11.073 4.773 10.609 5.042 10.076 5.257C9.008 5.689 7.566 5.944 6 5.944C4.433 5.944 2.992 5.689 1.924 5.257C1.391 5.042 0.926 4.773 0.587 4.449C0.247 4.123 0 3.709 0 3.222C0 2.736 0.246 2.322 0.587 1.996C0.928 1.67 1.391 1.403 1.924 1.187Z" fill="white"/>
<path fill-rule="evenodd" clip-rule="evenodd" d="M0.5 3.16797C0.632608 3.16797 0.759785 3.22065 0.853553 3.31442C0.947322 3.40818 1 3.53536 1 3.66797V6.77797C1 6.90597 1.062 7.07597 1.278 7.28197C1.495 7.48997 1.836 7.69997 2.298 7.88697C3.221 8.25897 4.529 8.50097 6 8.50097C7.47 8.50097 8.78 8.25897 9.702 7.88697C10.164 7.69997 10.505 7.48997 10.722 7.28197C10.938 7.07597 11 6.90597 11 6.77897V3.66797C11 3.53536 11.0527 3.40818 11.1464 3.31442C11.2402 3.22065 11.3674 3.16797 11.5 3.16797C11.6326 3.16797 11.7598 3.22065 11.8536 3.31442C11.9473 3.40818 12 3.53536 12 3.66797V6.77797C12 7.26597 11.754 7.67997 11.413 8.00497C11.072 8.32997 10.609 8.59897 10.076 8.81397C9.008 9.24497 7.566 9.50097 6 9.50097C4.433 9.50097 2.992 9.24497 1.924 8.81397C1.391 8.59797 0.926 8.32997 0.587 8.00497C0.247 7.68097 0 7.26497 0 6.77897V3.66797C0 3.53536 0.0526784 3.40818 0.146447 3.31442C0.240215 3.22065 0.367392 3.16797 0.5 3.16797Z" fill="white"/>
<path fill-rule="evenodd" clip-rule="evenodd" d="M2.69922 8.50028V5.11328H3.69922V8.50028H2.69922ZM7.09922 8.50028V5.50028H8.09922V8.50028H7.09922Z" fill="white"/>
</svg>
