<svg width="18" height="18" viewBox="0 0 18 18" fill="none" xmlns="http://www.w3.org/2000/svg">
<path d="M2.41946 8.341H5.92155C7.55962 8.341 8.341 7.56904 8.341 5.90272V2.4477C8.341 0.781381 7.55962 0 5.92155 0H2.41946C0.781381 0 0 0.781381 0 2.4477V5.90272C0 7.56904 0.781381 8.341 2.41946 8.341ZM12.0785 8.341H15.5805C17.2186 8.341 18 7.56904 18 5.90272V2.4477C18 0.781381 17.2186 0 15.5805 0H12.0785C10.4404 0 9.65899 0.781381 9.65899 2.4477V5.90272C9.65899 7.56904 10.4404 8.341 12.0785 8.341ZM2.29707 6.57113C1.92992 6.57113 1.76987 6.40167 1.76987 6.03452V2.30649C1.76987 1.93933 1.92992 1.76987 2.29707 1.76987H6.04393C6.40167 1.76987 6.57113 1.93933 6.57113 2.30649V6.03452C6.57113 6.40167 6.40167 6.57113 6.04393 6.57113H2.29707ZM11.9561 6.57113C11.5889 6.57113 11.4289 6.40167 11.4289 6.03452V2.30649C11.4289 1.93933 11.5889 1.76987 11.9561 1.76987H15.7029C16.0701 1.76987 16.2301 1.93933 16.2301 2.30649V6.03452C16.2301 6.40167 16.0701 6.57113 15.7029 6.57113H11.9561ZM3.26674 5.28138H5.06485C5.21548 5.28138 5.28138 5.2249 5.28138 5.03661V3.29498C5.28138 3.12552 5.21548 3.05962 5.06485 3.05962H3.26674C3.10669 3.05962 3.05962 3.12552 3.05962 3.29498V5.03661C3.05962 5.2249 3.10669 5.28138 3.26674 5.28138ZM12.954 5.28138H14.7521C14.9121 5.28138 14.978 5.2249 14.978 5.03661V3.29498C14.978 3.12552 14.9121 3.05962 14.7521 3.05962H12.954C12.8033 3.05962 12.7469 3.12552 12.7469 3.29498V5.03661C12.7469 5.2249 12.8033 5.28138 12.954 5.28138ZM2.41946 18H5.92155C7.55962 18 8.341 17.228 8.341 15.5617V12.1067C8.341 10.4404 7.55962 9.65899 5.92155 9.65899H2.41946C0.781381 9.65899 0 10.4404 0 12.1067V15.5617C0 17.228 0.781381 18 2.41946 18ZM10.3556 12.3044H12.1538C12.3138 12.3044 12.3797 12.2479 12.3797 12.0596V10.318C12.3797 10.1485 12.3138 10.0826 12.1538 10.0826H10.3556C10.205 10.0826 10.1485 10.1485 10.1485 10.318V12.0596C10.1485 12.2479 10.205 12.3044 10.3556 12.3044ZM15.4676 12.3044H17.2657C17.4257 12.3044 17.4822 12.2479 17.4822 12.0596V10.318C17.4822 10.1485 17.4257 10.0826 17.2657 10.0826H15.4676C15.3169 10.0826 15.2605 10.1485 15.2605 10.318V12.0596C15.2605 12.2479 15.3169 12.3044 15.4676 12.3044ZM2.29707 16.2301C1.92992 16.2301 1.76987 16.0607 1.76987 15.7029V11.9749C1.76987 11.5983 1.92992 11.4289 2.29707 11.4289H6.04393C6.40167 11.4289 6.57113 11.5983 6.57113 11.9749V15.7029C6.57113 16.0607 6.40167 16.2301 6.04393 16.2301H2.29707ZM12.9351 14.8651H14.7333C14.8933 14.8651 14.9592 14.7992 14.9592 14.6203V12.8692C14.9592 12.6998 14.8933 12.6339 14.7333 12.6339H12.9351C12.7845 12.6339 12.728 12.6998 12.728 12.8692V14.6203C12.728 14.7992 12.7845 14.8651 12.9351 14.8651ZM3.26674 14.9404H5.06485C5.21548 14.9404 5.28138 14.8839 5.28138 14.6956V12.954C5.28138 12.7845 5.21548 12.7186 5.06485 12.7186H3.26674C3.10669 12.7186 3.05962 12.7845 3.05962 12.954V14.6956C3.05962 14.8839 3.10669 14.9404 3.26674 14.9404ZM10.3556 17.4163H12.1538C12.3138 17.4163 12.3797 17.3504 12.3797 17.1715V15.4299C12.3797 15.251 12.3138 15.1946 12.1538 15.1946H10.3556C10.205 15.1946 10.1485 15.251 10.1485 15.4299V17.1715C10.1485 17.3504 10.205 17.4163 10.3556 17.4163ZM15.4676 17.4163H17.2657C17.4257 17.4163 17.4822 17.3504 17.4822 17.1715V15.4299C17.4822 15.251 17.4257 15.1946 17.2657 15.1946H15.4676C15.3169 15.1946 15.2605 15.251 15.2605 15.4299V17.1715C15.2605 17.3504 15.3169 17.4163 15.4676 17.4163Z" fill="white"/>
</svg>
