<svg width="264" height="53" viewBox="0 0 264 53" fill="none" xmlns="http://www.w3.org/2000/svg">
<path d="M33.5296 25.053C33.5296 20.589 32.9406 17.427 31.7626 15.567C30.6466 13.707 28.6936 12.777 25.9036 12.777C25.0356 12.777 24.1366 12.839 23.2066 12.963C22.2766 13.025 21.3776 13.118 20.5096 13.242V51H6.65258V3.756C7.83058 3.446 9.19458 3.136 10.7446 2.826C12.3566 2.454 14.0306 2.144 15.7666 1.896C17.5646 1.586 19.3936 1.369 21.2536 1.245C23.1136 1.059 24.9426 0.965996 26.7406 0.965996C30.2746 0.965996 33.1266 1.431 35.2966 2.361C37.5286 3.229 39.3576 4.283 40.7836 5.523C42.7676 4.097 45.0306 2.981 47.5726 2.175C50.1766 1.369 52.5636 0.965996 54.7336 0.965996C58.6396 0.965996 61.8326 1.524 64.3126 2.64C66.8546 3.694 68.8696 5.213 70.3576 7.197C71.8456 9.181 72.8686 11.537 73.4266 14.265C73.9846 16.993 74.2636 20.031 74.2636 23.379V51H60.4066V25.053C60.4066 20.589 59.8176 17.427 58.6396 15.567C57.5236 13.707 55.5706 12.777 52.7806 12.777C52.0366 12.777 50.9826 12.963 49.6186 13.335C48.3166 13.707 47.2316 14.172 46.3636 14.73C46.7976 16.156 47.0766 17.675 47.2006 19.287C47.3246 20.837 47.3866 22.511 47.3866 24.309V51H33.5296V25.053ZM125.603 26.448C125.603 30.292 125.045 33.826 123.929 37.05C122.813 40.212 121.201 42.94 119.093 45.234C116.985 47.466 114.443 49.202 111.467 50.442C108.553 51.682 105.267 52.302 101.609 52.302C98.0129 52.302 94.7269 51.682 91.7509 50.442C88.8369 49.202 86.3259 47.466 84.2179 45.234C82.1099 42.94 80.4669 40.212 79.2889 37.05C78.1109 33.826 77.5219 30.292 77.5219 26.448C77.5219 22.604 78.1109 19.101 79.2889 15.939C80.5289 12.777 82.2029 10.08 84.3109 7.848C86.4809 5.616 89.0229 3.88 91.9369 2.64C94.9129 1.4 98.1369 0.779998 101.609 0.779998C105.143 0.779998 108.367 1.4 111.281 2.64C114.257 3.88 116.799 5.616 118.907 7.848C121.015 10.08 122.658 12.777 123.836 15.939C125.014 19.101 125.603 22.604 125.603 26.448ZM111.467 26.448C111.467 22.17 110.599 18.822 108.863 16.404C107.189 13.924 104.771 12.684 101.609 12.684C98.4469 12.684 95.9979 13.924 94.2619 16.404C92.5259 18.822 91.6579 22.17 91.6579 26.448C91.6579 30.726 92.5259 34.136 94.2619 36.678C95.9979 39.158 98.4469 40.398 101.609 40.398C104.771 40.398 107.189 39.158 108.863 36.678C110.599 34.136 111.467 30.726 111.467 26.448ZM175.093 26.448C175.093 30.292 174.535 33.826 173.419 37.05C172.303 40.212 170.691 42.94 168.583 45.234C166.475 47.466 163.933 49.202 160.957 50.442C158.043 51.682 154.757 52.302 151.099 52.302C147.503 52.302 144.217 51.682 141.241 50.442C138.327 49.202 135.816 47.466 133.708 45.234C131.6 42.94 129.957 40.212 128.779 37.05C127.601 33.826 127.012 30.292 127.012 26.448C127.012 22.604 127.601 19.101 128.779 15.939C130.019 12.777 131.693 10.08 133.801 7.848C135.971 5.616 138.513 3.88 141.427 2.64C144.403 1.4 147.627 0.779998 151.099 0.779998C154.633 0.779998 157.857 1.4 160.771 2.64C163.747 3.88 166.289 5.616 168.397 7.848C170.505 10.08 172.148 12.777 173.326 15.939C174.504 19.101 175.093 22.604 175.093 26.448ZM160.957 26.448C160.957 22.17 160.089 18.822 158.353 16.404C156.679 13.924 154.261 12.684 151.099 12.684C147.937 12.684 145.488 13.924 143.752 16.404C142.016 18.822 141.148 22.17 141.148 26.448C141.148 30.726 142.016 34.136 143.752 36.678C145.488 39.158 147.937 40.398 151.099 40.398C154.261 40.398 156.679 39.158 158.353 36.678C160.089 34.136 160.957 30.726 160.957 26.448ZM214.654 11.382C213.538 12.622 212.019 14.296 210.097 16.404C208.237 18.512 206.222 20.837 204.052 23.379C201.882 25.921 199.681 28.587 197.449 31.377C195.279 34.167 193.295 36.864 191.497 39.468H215.119V51H174.664V42.816C175.966 40.584 177.516 38.197 179.314 35.655C181.174 33.051 183.096 30.447 185.08 27.843C187.126 25.239 189.141 22.728 191.125 20.31C193.109 17.83 194.938 15.598 196.612 13.614H175.78V2.082H214.654V11.382ZM213.732 26.913C213.732 22.573 214.383 18.791 215.685 15.567C217.049 12.281 218.816 9.553 220.986 7.383C223.156 5.213 225.636 3.57 228.426 2.454C231.278 1.338 234.192 0.779998 237.168 0.779998C244.112 0.779998 249.599 2.919 253.629 7.197C257.659 11.413 259.674 17.644 259.674 25.89C259.674 26.696 259.643 27.595 259.581 28.587C259.519 29.517 259.457 30.354 259.395 31.098H227.961C228.271 33.95 229.604 36.213 231.96 37.887C234.316 39.561 237.478 40.398 241.446 40.398C243.988 40.398 246.468 40.181 248.886 39.747C251.366 39.251 253.381 38.662 254.931 37.98L256.791 49.233C256.047 49.605 255.055 49.977 253.815 50.349C252.575 50.721 251.18 51.031 249.63 51.279C248.142 51.589 246.53 51.837 244.794 52.023C243.058 52.209 241.322 52.302 239.586 52.302C235.184 52.302 231.34 51.651 228.054 50.349C224.83 49.047 222.133 47.28 219.963 45.048C217.855 42.754 216.274 40.057 215.22 36.957C214.228 33.857 213.732 30.509 213.732 26.913ZM246.282 21.612C246.22 20.434 246.003 19.287 245.631 18.171C245.321 17.055 244.794 16.063 244.05 15.195C243.368 14.327 242.469 13.614 241.353 13.056C240.299 12.498 238.966 12.219 237.354 12.219C235.804 12.219 234.471 12.498 233.355 13.056C232.239 13.552 231.309 14.234 230.565 15.102C229.821 15.97 229.232 16.993 228.798 18.171C228.426 19.287 228.147 20.434 227.961 21.612H246.282Z" fill="white"/>
</svg>
