<svg width="41" height="41" viewBox="0 0 41 41" fill="none" xmlns="http://www.w3.org/2000/svg">
<path d="M40.2917 20.6272C40.2917 31.6231 31.3777 40.537 20.3818 40.537C9.38588 40.537 0.471924 31.6231 0.471924 20.6272C0.471924 9.63124 9.38588 0.717285 20.3818 0.717285C31.3777 0.717285 40.2917 9.63124 40.2917 20.6272Z" fill="#F7931A"/>
<path fill-rule="evenodd" clip-rule="evenodd" d="M24.6576 12.1734C27.4186 13.1862 29.4074 14.6865 28.9514 17.5657C28.6064 19.6613 27.5075 20.686 26.023 21.0476C27.9985 22.153 28.9494 23.8311 27.9325 26.7744C26.6674 30.4655 23.836 30.801 20.0858 30.0858L19.1203 33.9826L16.9411 33.4423L17.9065 29.5465C17.3526 29.399 16.7288 29.2788 16.1168 29.1033L15.1505 32.9989L12.9761 32.4598L13.9414 28.5639L9.60795 27.3838L10.6853 24.629C10.7074 24.6351 12.3098 25.0754 12.2952 25.0506C12.9015 25.1979 13.1981 24.7741 13.3197 24.4777L14.866 18.2316L15.9911 13.7919C16.0397 13.312 15.8895 12.6844 15.0033 12.4455C15.0632 12.4104 13.4274 12.054 13.4081 12.0498L14.053 9.43884L18.5184 10.5461L19.465 6.72914L21.7143 7.28692L20.7688 11.1032C21.3497 11.2295 21.913 11.3826 22.4931 11.5301L23.4395 7.71405L25.6282 8.2567L24.6576 12.1734ZM23.772 25.268C24.4811 22.5159 19.3413 21.6279 17.9444 21.2647L16.7768 25.9475C18.181 26.3599 23.125 27.9531 23.772 25.268ZM24.6396 17.3079C25.3195 14.5503 21.0385 13.9339 19.8573 13.6286L18.6895 18.3124C19.8751 18.6661 23.9665 19.9789 24.6396 17.3079Z" fill="white"/>
</svg>
