<svg width="50" height="50" viewBox="0 0 50 50" fill="none" xmlns="http://www.w3.org/2000/svg">
<path d="M24.7711 50.0002C38.4518 50.0002 49.5422 38.9098 49.5422 25.2291C49.5422 11.5484 38.4518 0.458008 24.7711 0.458008C11.0904 0.458008 0 11.5484 0 25.2291C0 38.9098 11.0904 50.0002 24.7711 50.0002Z" fill="#26A17B"/>
<path fill-rule="evenodd" clip-rule="evenodd" d="M27.747 27.3694V27.3663C27.5767 27.3787 26.6989 27.4313 24.7404 27.4313C23.1767 27.4313 22.076 27.3849 21.6889 27.3663V27.371C15.6696 27.1062 11.1767 26.0581 11.1767 24.8041C11.1767 23.55 15.6696 22.5034 21.6889 22.2341V26.3275C22.0822 26.3554 23.2093 26.4219 24.7667 26.4219C26.6354 26.4219 27.5721 26.3445 27.747 26.329V22.2372C33.754 22.505 38.236 23.5531 38.236 24.8041C38.236 26.0581 33.754 27.1031 27.747 27.3694ZM27.747 21.8114V18.1484H36.1289V12.5625H13.307V18.1484H21.6889V21.8099C14.8769 22.1226 9.75391 23.4726 9.75391 25.0889C9.75391 26.7052 14.8769 28.0537 21.6889 28.368V40.1064H27.747V28.3649C34.5482 28.0522 39.6588 26.7037 39.6588 25.0889C39.6588 23.4742 34.5482 22.1257 27.747 21.8114Z" fill="white"/>
</svg>
