<svg width="18" height="19" viewBox="0 0 18 19" fill="none" xmlns="http://www.w3.org/2000/svg">
<path d="M18 2V11.75C18 12.1478 17.842 12.5294 17.5607 12.8107C17.2794 13.092 16.8978 13.25 16.5 13.25H6.31031L7.28063 14.2194C7.35031 14.2891 7.40558 14.3718 7.4433 14.4628C7.48101 14.5539 7.50042 14.6515 7.50042 14.75C7.50042 14.8485 7.48101 14.9461 7.4433 15.0372C7.40558 15.1282 7.35031 15.2109 7.28063 15.2806C7.21094 15.3503 7.12822 15.4056 7.03717 15.4433C6.94613 15.481 6.84855 15.5004 6.75 15.5004C6.65145 15.5004 6.55387 15.481 6.46283 15.4433C6.37178 15.4056 6.28906 15.3503 6.21937 15.2806L3.96937 13.0306C3.89964 12.961 3.84432 12.8783 3.80658 12.7872C3.76884 12.6962 3.74941 12.5986 3.74941 12.5C3.74941 12.4014 3.76884 12.3038 3.80658 12.2128C3.84432 12.1217 3.89964 12.039 3.96937 11.9694L6.21937 9.71937C6.36011 9.57864 6.55098 9.49958 6.75 9.49958C6.94902 9.49958 7.13989 9.57864 7.28063 9.71937C7.42136 9.86011 7.50042 10.051 7.50042 10.25C7.50042 10.449 7.42136 10.6399 7.28063 10.7806L6.31031 11.75H16.5V2H6V2.75C6 2.94891 5.92098 3.13968 5.78033 3.28033C5.63968 3.42098 5.44891 3.5 5.25 3.5C5.05109 3.5 4.86032 3.42098 4.71967 3.28033C4.57902 3.13968 4.5 2.94891 4.5 2.75V2C4.5 1.60218 4.65804 1.22064 4.93934 0.93934C5.22064 0.658035 5.60218 0.5 6 0.5H16.5C16.8978 0.5 17.2794 0.658035 17.5607 0.93934C17.842 1.22064 18 1.60218 18 2ZM12.75 15.5C12.5511 15.5 12.3603 15.579 12.2197 15.7197C12.079 15.8603 12 16.0511 12 16.25V17H1.5V7.25H11.6897L10.7194 8.21937C10.5786 8.36011 10.4996 8.55098 10.4996 8.75C10.4996 8.94902 10.5786 9.13989 10.7194 9.28063C10.8601 9.42136 11.051 9.50042 11.25 9.50042C11.449 9.50042 11.6399 9.42136 11.7806 9.28063L14.0306 7.03063C14.1004 6.96097 14.1557 6.87825 14.1934 6.78721C14.2312 6.69616 14.2506 6.59856 14.2506 6.5C14.2506 6.40144 14.2312 6.30384 14.1934 6.21279C14.1557 6.12175 14.1004 6.03903 14.0306 5.96937L11.7806 3.71937C11.6399 3.57864 11.449 3.49958 11.25 3.49958C11.051 3.49958 10.8601 3.57864 10.7194 3.71937C10.5786 3.86011 10.4996 4.05098 10.4996 4.25C10.4996 4.44902 10.5786 4.63989 10.7194 4.78063L11.6897 5.75H1.5C1.10218 5.75 0.720644 5.90804 0.43934 6.18934C0.158035 6.47064 0 6.85218 0 7.25V17C0 17.3978 0.158035 17.7794 0.43934 18.0607C0.720644 18.342 1.10218 18.5 1.5 18.5H12C12.3978 18.5 12.7794 18.342 13.0607 18.0607C13.342 17.7794 13.5 17.3978 13.5 17V16.25C13.5 16.0511 13.421 15.8603 13.2803 15.7197C13.1397 15.579 12.9489 15.5 12.75 15.5Z" fill="#9DB2CE"/>
</svg>
