<svg width="28" height="25" viewBox="0 0 28 25" fill="none" xmlns="http://www.w3.org/2000/svg">
<path opacity="0.5" d="M16.4206 2.86925C17.2681 2.74993 17.753 2.78205 18.1171 2.89985C18.6953 3.08648 19.2109 3.42304 19.6132 3.8682C18.9982 3.84832 18.3129 3.84832 17.5419 3.84832H11.8343L12.9112 3.60049C14.4685 3.24099 15.5623 2.98858 16.4206 2.86925ZM2.90796 12.3386C2.90796 11.0337 2.90796 10.125 2.96609 9.41675C3.02269 8.72375 3.12978 8.32448 3.28276 8.02311C3.61285 7.37488 4.13984 6.8479 4.78807 6.5178C5.08943 6.36482 5.48871 6.25774 6.18323 6.20113C6.88999 6.14453 7.80021 6.143 9.10359 6.143H17.3644C19.4235 6.143 20.4622 6.15218 21.192 6.33881L22.9023 6.77633L22.607 5.03543C22.4953 4.37457 22.3087 3.77642 21.9798 3.23028C21.2665 2.03769 20.1445 1.14457 18.8223 0.71684C17.9779 0.444537 17.0921 0.458305 16.1024 0.595986C15.1325 0.732138 13.9392 1.0075 12.4492 1.3517L7.15311 2.574C6.17252 2.80041 5.3755 2.98399 4.73299 3.18286C4.06601 3.38785 3.49081 3.63109 2.97068 4.01048C2.13471 4.62032 1.47925 5.44493 1.07375 6.39695C0.819802 6.98897 0.712717 7.60548 0.662234 8.29847C0.613281 8.97158 0.613281 9.78849 0.613281 10.7951V12.3386H2.90796Z" fill="#9DB2CE"/>
<path d="M6.34851 17.6162C6.04422 17.6162 5.75239 17.7371 5.53722 17.9523C5.32205 18.1674 5.20117 18.4593 5.20117 18.7636C5.20117 19.0678 5.32205 19.3597 5.53722 19.5748C5.75239 19.79 6.04422 19.9109 6.34851 19.9109H9.40808C9.71237 19.9109 10.0042 19.79 10.2194 19.5748C10.4345 19.3597 10.5554 19.0678 10.5554 18.7636C10.5554 18.4593 10.4345 18.1674 10.2194 17.9523C10.0042 17.7371 9.71237 17.6162 9.40808 17.6162H6.34851Z" fill="#9DB2CE"/>
<path d="M9.05464 3.84766H17.8647C18.8988 3.84766 19.7341 3.84766 20.4118 3.89355C21.1109 3.94097 21.7274 4.04194 22.3133 4.28365C23.0095 4.57195 23.6421 4.99459 24.175 5.52744C24.7078 6.06028 25.1304 6.69289 25.4187 7.38912C25.6605 7.9735 25.7614 8.59153 25.8088 9.28912C25.8547 9.94998 25.8547 10.7577 25.8547 11.7536C26.3132 11.9704 26.7006 12.313 26.9719 12.7414C27.2433 13.1699 27.3873 13.6666 27.3873 14.1737C27.3873 14.6809 27.2433 15.1776 26.9719 15.606C26.7006 16.0345 26.3132 16.377 25.8547 16.5939C25.8547 17.5882 25.8547 18.3975 25.8088 19.0568C25.7614 19.7559 25.6605 20.3724 25.4187 20.9583C25.1304 21.6546 24.7078 22.2872 24.175 22.82C23.6421 23.3529 23.0095 23.7755 22.3133 24.0638C21.7289 24.3055 21.1109 24.4065 20.4133 24.4539C19.7325 24.4998 18.8988 24.4998 17.8647 24.4998H9.05311C7.81092 24.4998 6.80738 24.4998 5.9966 24.434C5.1598 24.3652 4.42551 24.2199 3.74628 23.8741C2.66613 23.3244 1.78786 22.4466 1.23743 21.3668C0.891702 20.6876 0.747902 19.9533 0.679062 19.118C0.613281 18.3057 0.613281 17.3021 0.613281 16.0584V12.289C0.613281 11.0453 0.613281 10.0418 0.679062 9.22945C0.747902 8.39419 0.893232 7.65989 1.23896 6.98066C1.78873 5.90051 2.66647 5.02223 3.74628 4.47181C4.42551 4.12608 5.1598 3.98228 5.99507 3.91344C6.80738 3.84766 7.81092 3.84766 9.05464 3.84766ZM23.5188 9.44668C23.479 8.86536 23.4056 8.52575 23.2985 8.26722C23.1255 7.84948 22.8719 7.46992 22.5522 7.15021C22.2325 6.8305 21.8529 6.57691 21.4352 6.40393C21.1767 6.29685 20.8386 6.22342 20.2573 6.18364C19.6637 6.14234 18.908 6.14234 17.8234 6.14234H9.10359C7.80021 6.14234 6.88999 6.14234 6.1817 6.20047C5.48871 6.25707 5.08943 6.36416 4.78807 6.51714C4.13984 6.84724 3.61285 7.37422 3.28276 8.02245C3.12978 8.32382 3.02269 8.72309 2.96609 9.41762C2.90949 10.1244 2.90796 11.0331 2.90796 12.338V16.0095C2.90796 17.3144 2.90796 18.2231 2.96609 18.9314C3.02269 19.6244 3.12978 20.0236 3.28276 20.3265C3.61319 20.9736 4.13944 21.4999 4.78807 21.8303C5.08943 21.9833 5.48871 22.0904 6.18323 22.147C6.88999 22.2036 7.80021 22.2051 9.10359 22.2051H17.8234C18.9095 22.2051 19.6652 22.2051 20.2557 22.1638C20.837 22.124 21.1767 22.0506 21.4352 21.9435C21.8529 21.7705 22.2325 21.517 22.5522 21.1973C22.8719 20.8775 23.1255 20.498 23.2985 20.0802C23.4056 19.8217 23.479 19.4836 23.5188 18.9023C23.5539 18.3822 23.5601 17.7351 23.5601 16.8509H21.6478C21.2963 16.8509 20.9481 16.7816 20.6233 16.6471C20.2985 16.5125 20.0034 16.3153 19.7548 16.0667C19.5062 15.8182 19.309 15.523 19.1745 15.1982C19.04 14.8734 18.9707 14.5253 18.9707 14.1737C18.9707 13.8222 19.04 13.474 19.1745 13.1492C19.309 12.8244 19.5062 12.5293 19.7548 12.2807C20.0034 12.0321 20.2985 11.8349 20.6233 11.7004C20.9481 11.5658 21.2963 11.4966 21.6478 11.4966H23.5601C23.5601 10.6124 23.5539 9.96681 23.5188 9.44668ZM21.6478 13.7913C21.5464 13.7913 21.4491 13.8316 21.3774 13.9033C21.3057 13.975 21.2654 14.0723 21.2654 14.1737C21.2654 14.2752 21.3057 14.3724 21.3774 14.4442C21.4491 14.5159 21.5464 14.5562 21.6478 14.5562H24.7074C24.8088 14.5562 24.9061 14.5159 24.9778 14.4442C25.0496 14.3724 25.0898 14.2752 25.0898 14.1737C25.0898 14.0723 25.0496 13.975 24.9778 13.9033C24.9061 13.8316 24.8088 13.7913 24.7074 13.7913H21.6478Z" fill="#9DB2CE"/>
</svg>
