<svg width="28" height="25" viewBox="0 0 28 25" fill="none" xmlns="http://www.w3.org/2000/svg">
<path fill-rule="evenodd" clip-rule="evenodd" d="M0 2.5C0 1.96957 0.210714 1.46086 0.585786 1.08579C0.960859 0.710714 1.46957 0.5 2 0.5H26C26.5304 0.5 27.0391 0.710714 27.4142 1.08579C27.7893 1.46086 28 1.96957 28 2.5C28 3.03043 27.7893 3.53914 27.4142 3.91421C27.0391 4.28929 26.5304 4.5 26 4.5H2C1.46957 4.5 0.960859 4.28929 0.585786 3.91421C0.210714 3.53914 0 3.03043 0 2.5ZM0 12.5C0 11.9696 0.210714 11.4609 0.585786 11.0858C0.960859 10.7107 1.46957 10.5 2 10.5H26C26.5304 10.5 27.0391 10.7107 27.4142 11.0858C27.7893 11.4609 28 11.9696 28 12.5C28 13.0304 27.7893 13.5391 27.4142 13.9142C27.0391 14.2893 26.5304 14.5 26 14.5H2C1.46957 14.5 0.960859 14.2893 0.585786 13.9142C0.210714 13.5391 0 13.0304 0 12.5ZM12 22.5C12 21.9696 12.2107 21.4609 12.5858 21.0858C12.9609 20.7107 13.4696 20.5 14 20.5H26C26.5304 20.5 27.0391 20.7107 27.4142 21.0858C27.7893 21.4609 28 21.9696 28 22.5C28 23.0304 27.7893 23.5391 27.4142 23.9142C27.0391 24.2893 26.5304 24.5 26 24.5H14C13.4696 24.5 12.9609 24.2893 12.5858 23.9142C12.2107 23.5391 12 23.0304 12 22.5Z" fill="#9DB2CE"/>
</svg>
