<svg width="50" height="50" viewBox="0 0 50 50" fill="none" xmlns="http://www.w3.org/2000/svg">
<path d="M33.2193 36.303L25.6955 28.776C25.4206 28.5009 25.0956 28.4509 24.9207 28.4509C24.7457 28.4509 24.4207 28.5009 24.1458 28.776L16.597 36.328C15.7471 37.1782 14.4223 38.5536 9.99805 38.5536L19.2716 47.806C20.6776 49.2109 22.5835 50 24.5707 50C26.5579 50 28.4638 49.2109 29.8699 47.806L39.1684 38.5286C36.8937 38.5286 34.994 38.0785 33.2193 36.303ZM16.597 13.672L24.1458 21.224C24.3457 21.4241 24.6457 21.5491 24.9207 21.5491C25.1956 21.5491 25.4956 21.4241 25.6955 21.224L33.1693 13.747C34.944 11.8965 36.9687 11.4714 39.2434 11.4714L29.9448 2.19398C28.5388 0.789105 26.6329 0 24.6457 0C22.6585 0 20.7526 0.789105 19.3465 2.19398L10.073 11.4464C14.4723 11.4464 15.8221 12.8968 16.597 13.672Z" fill="white"/>
<path d="M47.7607 19.6234L42.1366 13.9719H38.9872C37.6374 13.9719 36.2876 14.522 35.3627 15.4973L27.8639 22.9993C27.164 23.6995 26.2392 24.0495 25.3143 24.0495C24.362 24.0361 23.4504 23.6606 22.7647 22.9993L15.216 15.4223C14.2661 14.472 12.9663 13.9219 11.5915 13.9219H7.91713L2.19305 19.6734C0.78877 21.08 0 22.9868 0 24.9748C0 26.9628 0.78877 28.8696 2.19305 30.2762L7.91713 36.0277H11.6165C12.9663 36.0277 14.2661 35.4776 15.241 34.5273L22.7897 26.9753C23.4896 26.2751 24.4145 25.925 25.3393 25.925C26.2642 25.925 27.189 26.2751 27.8889 26.9753L35.4127 34.5023C36.3626 35.4526 37.6624 36.0027 39.0371 36.0027H42.1866L47.8107 30.3512C49.2221 28.9199 50.0093 26.9875 49.9999 24.977C49.9905 22.9664 49.1854 21.0415 47.7607 19.6234Z" fill="white"/>
</svg>
