<svg width="18" height="25" viewBox="0 0 18 25" fill="none" xmlns="http://www.w3.org/2000/svg">
<path d="M12.848 0.850877L17.6479 5.64563C17.8547 5.85209 17.979 6.12691 17.9976 6.41852C18.0161 6.71013 17.9276 6.99848 17.7487 7.22949L17.6491 7.34228L12.8492 12.149C12.6338 12.3665 12.3434 12.4934 12.0374 12.5038C11.7314 12.5142 11.4331 12.4073 11.2034 12.2049C10.9737 12.0025 10.83 11.72 10.8018 11.4152C10.7736 11.1103 10.863 10.8063 11.0517 10.5652L11.1513 10.4524L13.8992 7.70224H1.19997C0.906054 7.70221 0.622378 7.59431 0.402742 7.39901C0.183107 7.20372 0.0427874 6.93462 0.00839972 6.64274L0 6.50116C3.87716e-05 6.20726 0.107944 5.9236 0.30325 5.70398C0.498555 5.48436 0.767677 5.34405 1.05957 5.30967L1.19997 5.30127H13.9076L11.1525 2.54992C10.9457 2.34346 10.8214 2.06865 10.8028 1.77704C10.7842 1.48543 10.8727 1.19707 11.0517 0.966067L11.1513 0.852077C11.3578 0.645307 11.6326 0.52098 11.9242 0.502424C12.2158 0.483867 12.5042 0.572355 12.7352 0.751286L12.848 0.850877ZM17.9887 18.3597L17.9959 18.5C17.9959 18.7939 17.8879 19.0776 17.6926 19.2972C17.4973 19.5168 17.2282 19.6572 16.9363 19.6915L16.7959 19.6999H4.09668L6.84941 22.4513C7.05601 22.6579 7.18013 22.9328 7.19846 23.2244C7.2168 23.516 7.1281 23.8043 6.949 24.0351L6.84941 24.1479C6.64293 24.3547 6.3681 24.479 6.07647 24.4976C5.78485 24.5161 5.49647 24.4276 5.26545 24.2487L5.15265 24.1479L0.35279 19.3532C0.146007 19.1467 0.0216719 18.8719 0.00311385 18.5803C-0.0154442 18.2887 0.0730503 18.0003 0.251993 17.7693L0.35159 17.6565L5.15145 12.8522C5.3669 12.6347 5.65732 12.5078 5.96329 12.4974C6.26925 12.487 6.56761 12.5939 6.7973 12.7963C7.02699 12.9987 7.17064 13.2812 7.19884 13.586C7.22704 13.8909 7.13766 14.1949 6.949 14.436L6.84941 14.5488L4.10148 17.3002H16.7971C17.091 17.3002 17.3747 17.4081 17.5943 17.6034C17.814 17.7987 17.9543 18.0678 17.9887 18.3597Z" fill="#9DB2CE"/>
</svg>
