<svg width="348" height="294" viewBox="0 0 348 294" fill="none" xmlns="http://www.w3.org/2000/svg">
<path d="M209.011 19.0015C192.371 34.0015 183.831 53.7215 174.441 72.5315C165.051 91.3415 153.591 110.612 133.431 122.222C119.131 130.452 97.031 126.592 81.591 133.222C56.741 143.942 46.891 153.032 40.891 175.782C33.751 202.852 88.071 271.882 140.341 288.002C172.341 297.872 217.101 292.932 241.951 273.412C266.801 253.892 262.741 215.762 266.951 187.532C269.951 167.212 268.371 146.102 276.701 126.832C284.081 109.752 298.811 95.3115 305.431 78.0115C314.231 55.0115 306.431 24.3915 283.641 8.34154C261.221 -7.40846 227.081 2.76154 209.011 19.0015Z" fill="#FF085D"/>
<g opacity="0.9">
<path d="M209.011 19.0015C192.371 34.0015 183.831 53.7215 174.441 72.5315C165.051 91.3415 153.591 110.612 133.431 122.222C119.131 130.452 97.031 126.592 81.591 133.222C56.741 143.942 46.891 153.032 40.891 175.782C33.751 202.852 88.071 271.882 140.341 288.002C172.341 297.872 217.101 292.932 241.951 273.412C266.801 253.892 262.741 215.762 266.951 187.532C269.951 167.212 268.371 146.102 276.701 126.832C284.081 109.752 298.811 95.3115 305.431 78.0115C314.231 55.0115 306.431 24.3915 283.641 8.34154C261.221 -7.40846 227.081 2.76154 209.011 19.0015Z" fill="white"/>
<path d="M175.421 293.461C163.498 293.546 151.629 291.861 140.201 288.461C116.461 281.151 89.4608 261.651 67.9608 236.311C47.7808 212.521 36.9608 188.711 40.4008 175.651C46.2208 153.581 55.4008 143.951 81.4008 132.751C88.6408 129.631 97.4008 128.751 105.941 127.971C115.621 127.051 125.621 126.091 133.181 121.741C153.061 110.311 164.591 91.2214 173.991 72.3114C174.991 70.2014 176.081 68.0914 177.131 65.9614C185.341 49.2514 193.831 31.9614 208.671 18.6314C227.771 1.4714 261.961 -7.4986 283.901 7.9414C305.841 23.3814 315.281 53.5914 305.901 78.2014C302.421 87.3214 296.611 95.7614 291.001 103.921C285.921 111.311 280.671 118.921 277.171 127.041C271.511 140.131 270.441 154.371 269.401 168.131C268.911 174.541 268.401 181.131 267.461 187.621C266.521 194.111 265.991 200.901 265.461 208.151C263.681 231.811 261.661 258.631 242.321 273.821C230.481 283.111 213.321 289.651 193.971 292.231C187.821 293.05 181.624 293.461 175.421 293.461ZM209.011 19.0014L209.341 19.3814C194.641 32.5914 186.191 49.7814 178.021 66.3814C177.021 68.5014 175.941 70.6214 174.881 72.7314C165.371 91.7914 153.791 111.021 133.681 122.601C125.931 127.061 115.821 128.031 106.041 128.961C97.6108 129.761 88.9008 130.601 81.7908 133.661C56.1608 144.711 47.0908 154.181 41.3708 175.891C38.0108 188.651 48.7408 212.111 68.7208 235.651C90.1008 260.851 116.931 280.241 140.491 287.501C173.791 297.761 218.221 291.391 241.641 273.001C260.641 258.081 262.551 232.651 264.411 208.001C264.951 200.741 265.471 193.871 266.411 187.401C267.351 180.931 267.861 174.401 268.341 167.991C269.391 154.141 270.471 139.821 276.191 126.571C279.731 118.401 285.011 110.711 290.111 103.291C295.691 95.1714 301.461 86.7814 304.911 77.7814C314.161 53.5814 304.911 23.8814 283.301 8.6914C261.691 -6.4986 228.141 2.40139 209.301 19.3114L209.011 19.0014Z" fill="white"/>
</g>
<path opacity="0.1" d="M184.451 63.1714L146.711 204.331H159.401L196.721 63.1714H184.451Z" fill="white"/>
<path opacity="0.1" d="M204.041 63.1714L166.301 204.331H191.481L228.801 63.1714H204.041Z" fill="white"/>
<path d="M339.9 190.531L347.9 77.2315C347.974 76.3609 347.865 75.4845 347.579 74.6589C347.294 73.8333 346.837 73.0769 346.241 72.4387C345.644 71.8005 344.92 71.2947 344.115 70.9541C343.311 70.6135 342.444 70.4457 341.57 70.4615L143.83 70.6315C141.991 70.6569 140.226 71.3646 138.879 72.6174C137.532 73.8702 136.699 75.5787 136.54 77.4115L128.59 190.721C128.517 191.593 128.628 192.469 128.915 193.295C129.202 194.12 129.659 194.877 130.256 195.515C130.854 196.153 131.579 196.658 132.384 196.999C133.189 197.339 134.056 197.507 134.93 197.491L332.59 197.321C334.435 197.303 336.207 196.597 337.559 195.341C338.911 194.085 339.746 192.37 339.9 190.531Z" fill="#263238"/>
<path d="M337.361 188.061L345.361 74.7614C345.437 73.8906 345.329 73.0135 345.043 72.1872C344.758 71.3609 344.302 70.6039 343.705 69.9653C343.108 69.3268 342.383 68.821 341.578 68.481C340.773 68.1409 339.905 67.9741 339.031 67.9915L141.291 68.1615C139.452 68.1848 137.688 68.8922 136.342 70.1456C134.996 71.399 134.165 73.1088 134.011 74.9415L126.011 188.251C125.937 189.122 126.046 189.998 126.332 190.824C126.618 191.65 127.074 192.406 127.67 193.044C128.267 193.682 128.991 194.188 129.796 194.529C130.6 194.869 131.467 195.037 132.341 195.021L330.071 194.851C331.913 194.828 333.68 194.12 335.027 192.864C336.375 191.609 337.207 189.897 337.361 188.061Z" fill="#FF085D"/>
<path opacity="0.6" d="M332.12 189.741C331.714 190.115 331.182 190.322 330.63 190.321L132.89 190.491C132.573 190.488 132.259 190.42 131.969 190.292C131.679 190.164 131.417 189.979 131.2 189.747C130.983 189.515 130.816 189.242 130.708 188.944C130.599 188.645 130.552 188.328 130.57 188.011L138.57 74.7115C138.601 74.1614 138.845 73.6449 139.25 73.2715C139.654 72.8938 140.187 72.6861 140.74 72.6915L338.48 72.5215C338.797 72.525 339.111 72.5928 339.401 72.7208C339.691 72.8487 339.953 73.0342 340.17 73.2659C340.387 73.4977 340.554 73.7709 340.662 74.0692C340.771 74.3675 340.818 74.6846 340.8 75.0015L332.8 188.301C332.764 188.85 332.521 189.365 332.12 189.741Z" fill="white"/>
<path d="M266.351 127.451H196.941C196.329 127.461 195.742 127.693 195.288 128.103C194.834 128.513 194.544 129.074 194.471 129.681L193.401 139.831C193.367 140.113 193.393 140.399 193.479 140.67C193.564 140.942 193.706 141.191 193.895 141.403C194.084 141.615 194.316 141.784 194.576 141.9C194.836 142.015 195.117 142.073 195.401 142.071H264.811C265.425 142.059 266.014 141.826 266.469 141.414C266.925 141.003 267.217 140.441 267.291 139.831L268.351 129.681C268.384 129.4 268.356 129.115 268.27 128.845C268.185 128.575 268.042 128.327 267.853 128.116C267.664 127.905 267.433 127.737 267.174 127.622C266.915 127.508 266.634 127.449 266.351 127.451Z" fill="white"/>
<path d="M205.202 168.901H194.372C193.758 168.914 193.169 169.147 192.714 169.559C192.258 169.97 191.966 170.532 191.892 171.141L190.832 181.291C190.799 181.573 190.827 181.858 190.912 182.128C190.998 182.397 191.14 182.646 191.329 182.857C191.519 183.068 191.75 183.236 192.009 183.35C192.268 183.465 192.548 183.523 192.832 183.521H203.662C204.274 183.509 204.861 183.278 205.317 182.868C205.772 182.459 206.065 181.899 206.142 181.291L207.202 171.141C207.236 170.859 207.209 170.573 207.124 170.302C207.039 170.031 206.897 169.781 206.708 169.569C206.519 169.357 206.287 169.188 206.027 169.073C205.767 168.958 205.486 168.899 205.202 168.901Z" fill="white"/>
<path d="M223.901 168.901H213.071C212.457 168.914 211.868 169.147 211.413 169.559C210.957 169.97 210.665 170.532 210.591 171.141L209.531 181.291C209.498 181.573 209.526 181.858 209.612 182.128C209.697 182.397 209.84 182.646 210.029 182.857C210.218 183.068 210.449 183.236 210.708 183.35C210.967 183.465 211.248 183.523 211.531 183.521H222.361C222.973 183.509 223.561 183.278 224.016 182.868C224.471 182.459 224.764 181.899 224.841 181.291L225.901 171.141C225.935 170.859 225.909 170.573 225.823 170.302C225.738 170.031 225.596 169.781 225.407 169.569C225.218 169.357 224.986 169.188 224.726 169.073C224.466 168.958 224.185 168.899 223.901 168.901Z" fill="white"/>
<path d="M242.59 168.901H231.77C231.156 168.914 230.568 169.147 230.112 169.559C229.656 169.97 229.365 170.532 229.29 171.141L228.23 181.291C228.198 181.573 228.225 181.858 228.311 182.128C228.397 182.397 228.539 182.646 228.728 182.857C228.917 183.068 229.149 183.236 229.408 183.35C229.667 183.465 229.947 183.523 230.23 183.521H241.06C241.672 183.509 242.26 183.278 242.715 182.868C243.171 182.459 243.463 181.899 243.54 181.291L244.59 171.141C244.624 170.859 244.598 170.573 244.513 170.302C244.428 170.031 244.286 169.781 244.096 169.569C243.907 169.357 243.675 169.188 243.415 169.073C243.155 168.958 242.874 168.899 242.59 168.901Z" fill="white"/>
<path d="M261.301 168.901H250.471C249.857 168.914 249.269 169.147 248.813 169.559C248.358 169.97 248.066 170.532 247.991 171.141L246.931 181.291C246.899 181.573 246.926 181.858 247.012 182.128C247.098 182.397 247.24 182.646 247.429 182.857C247.618 183.068 247.85 183.236 248.109 183.35C248.368 183.465 248.648 183.523 248.931 183.521H259.761C260.374 183.509 260.961 183.278 261.416 182.868C261.872 182.459 262.165 181.899 262.241 181.291L263.301 171.141C263.335 170.859 263.309 170.573 263.224 170.302C263.139 170.031 262.997 169.781 262.808 169.569C262.618 169.357 262.386 169.188 262.126 169.073C261.867 168.958 261.585 168.899 261.301 168.901Z" fill="white"/>
<path d="M249.061 162.491H205.651C205.095 162.505 204.542 162.398 204.032 162.177C203.521 161.957 203.064 161.63 202.692 161.217C202.319 160.803 202.041 160.315 201.875 159.784C201.709 159.253 201.66 158.693 201.731 158.141L202.251 153.141C202.395 151.984 202.951 150.917 203.818 150.136C204.685 149.356 205.804 148.914 206.971 148.891H250.381C250.937 148.88 251.489 148.988 252 149.209C252.511 149.431 252.968 149.759 253.34 150.173C253.712 150.587 253.99 151.076 254.156 151.607C254.322 152.139 254.371 152.699 254.301 153.251L253.781 158.251C253.634 159.407 253.077 160.472 252.21 161.25C251.343 162.029 250.225 162.469 249.061 162.491ZM206.971 149.901C206.05 149.923 205.167 150.273 204.483 150.89C203.798 151.506 203.358 152.348 203.241 153.261L202.721 158.261C202.665 158.674 202.7 159.094 202.824 159.491C202.947 159.889 203.155 160.255 203.434 160.564C203.712 160.874 204.055 161.119 204.438 161.282C204.821 161.446 205.234 161.524 205.651 161.511H249.061C249.981 161.493 250.863 161.144 251.548 160.529C252.232 159.914 252.673 159.074 252.791 158.161L253.311 153.161C253.366 152.749 253.331 152.329 253.208 151.931C253.085 151.534 252.876 151.168 252.598 150.858C252.319 150.549 251.976 150.304 251.593 150.141C251.211 149.977 250.797 149.899 250.381 149.911L206.971 149.901Z" fill="#FF085D"/>
<path d="M268.85 106.312H199.44C198.828 106.326 198.242 106.561 197.788 106.972C197.335 107.383 197.044 107.944 196.97 108.552L195.9 118.702C195.867 118.983 195.895 119.268 195.981 119.538C196.067 119.808 196.209 120.056 196.398 120.267C196.587 120.478 196.819 120.646 197.078 120.761C197.336 120.875 197.617 120.933 197.9 120.932H267.3C267.912 120.92 268.5 120.688 268.955 120.278C269.41 119.869 269.703 119.309 269.78 118.702L270.84 108.552C270.874 108.27 270.848 107.985 270.763 107.715C270.679 107.444 270.538 107.195 270.35 106.983C270.161 106.771 269.931 106.602 269.672 106.486C269.413 106.37 269.133 106.311 268.85 106.312Z" fill="white"/>
<path d="M205.381 134.761C205.423 134.448 205.397 134.129 205.304 133.827C205.211 133.524 205.053 133.246 204.842 133.01C204.631 132.774 204.372 132.587 204.082 132.461C203.791 132.336 203.477 132.274 203.161 132.281C202.482 132.297 201.831 132.556 201.326 133.011C200.822 133.467 200.497 134.087 200.411 134.761C200.372 135.075 200.401 135.393 200.496 135.694C200.591 135.995 200.75 136.272 200.962 136.506C201.173 136.74 201.433 136.926 201.722 137.052C202.012 137.177 202.326 137.238 202.641 137.231C203.318 137.217 203.968 136.96 204.471 136.506C204.974 136.053 205.297 135.433 205.381 134.761Z" fill="#263238"/>
<path d="M213.021 134.761C213.062 134.447 213.034 134.128 212.939 133.826C212.845 133.524 212.687 133.245 212.475 133.01C212.263 132.774 212.003 132.587 211.713 132.462C211.422 132.336 211.108 132.274 210.791 132.281C210.113 132.296 209.462 132.554 208.958 133.01C208.455 133.465 208.133 134.087 208.051 134.761C208.011 135.074 208.038 135.392 208.132 135.693C208.226 135.994 208.384 136.271 208.594 136.506C208.805 136.74 209.064 136.927 209.354 137.052C209.643 137.177 209.956 137.238 210.271 137.231C210.95 137.218 211.6 136.961 212.105 136.507C212.61 136.054 212.935 135.434 213.021 134.761Z" fill="#263238"/>
<path d="M220.651 134.761C220.691 134.447 220.663 134.128 220.569 133.826C220.475 133.524 220.316 133.245 220.105 133.01C219.893 132.774 219.633 132.587 219.342 132.462C219.052 132.336 218.737 132.274 218.421 132.281C217.742 132.296 217.091 132.554 216.588 133.01C216.085 133.465 215.762 134.087 215.681 134.761C215.642 135.075 215.671 135.393 215.766 135.694C215.861 135.995 216.02 136.272 216.231 136.506C216.443 136.74 216.702 136.926 216.992 137.052C217.282 137.177 217.595 137.238 217.911 137.231C218.588 137.217 219.238 136.96 219.741 136.506C220.244 136.053 220.567 135.433 220.651 134.761Z" fill="#263238"/>
<path d="M228.281 134.761C228.323 134.448 228.297 134.129 228.204 133.827C228.111 133.524 227.953 133.246 227.742 133.01C227.531 132.774 227.272 132.587 226.982 132.461C226.691 132.336 226.377 132.274 226.061 132.281C225.382 132.296 224.732 132.554 224.228 133.01C223.725 133.465 223.403 134.087 223.321 134.761C223.28 135.078 223.308 135.4 223.405 135.704C223.502 136.008 223.664 136.288 223.881 136.522C224.097 136.757 224.363 136.941 224.658 137.062C224.954 137.183 225.272 137.237 225.591 137.221C226.258 137.196 226.894 136.935 227.387 136.484C227.88 136.034 228.196 135.423 228.281 134.761Z" fill="#263238"/>
<path d="M236.07 134.761C236.11 134.447 236.083 134.128 235.988 133.826C235.894 133.524 235.736 133.245 235.524 133.01C235.312 132.774 235.052 132.587 234.762 132.462C234.471 132.336 234.157 132.274 233.84 132.281C233.161 132.296 232.511 132.554 232.007 133.01C231.504 133.465 231.182 134.087 231.1 134.761C231.06 135.074 231.087 135.392 231.181 135.693C231.275 135.994 231.432 136.271 231.643 136.506C231.854 136.74 232.113 136.927 232.402 137.052C232.692 137.177 233.005 137.238 233.32 137.231C233.998 137.218 234.649 136.961 235.154 136.507C235.659 136.054 235.984 135.434 236.07 134.761Z" fill="#263238"/>
<path d="M207.882 113.621C207.924 113.308 207.898 112.99 207.804 112.688C207.711 112.386 207.554 112.108 207.343 111.873C207.132 111.638 206.872 111.452 206.582 111.327C206.291 111.203 205.978 111.143 205.662 111.151C204.985 111.165 204.335 111.423 203.832 111.876C203.329 112.33 203.006 112.949 202.922 113.621C202.88 113.934 202.906 114.253 202.999 114.555C203.092 114.856 203.25 115.134 203.461 115.369C203.672 115.604 203.932 115.79 204.222 115.915C204.512 116.04 204.826 116.1 205.142 116.091C205.82 116.079 206.47 115.823 206.974 115.369C207.477 114.915 207.8 114.294 207.882 113.621Z" fill="#263238"/>
<path d="M215.52 113.621C215.559 113.308 215.53 112.99 215.435 112.689C215.34 112.388 215.181 112.111 214.97 111.877C214.758 111.642 214.499 111.456 214.209 111.331C213.919 111.206 213.606 111.145 213.29 111.151C212.62 111.175 211.98 111.436 211.485 111.889C210.99 112.342 210.673 112.956 210.59 113.621C210.55 113.934 210.578 114.252 210.671 114.553C210.765 114.854 210.923 115.131 211.133 115.366C211.344 115.6 211.603 115.787 211.893 115.912C212.182 116.037 212.495 116.098 212.81 116.091C213.482 116.07 214.125 115.81 214.622 115.357C215.118 114.904 215.437 114.289 215.52 113.621Z" fill="#263238"/>
<path d="M223.15 113.621C223.191 113.309 223.163 112.991 223.069 112.69C222.975 112.389 222.818 112.111 222.607 111.877C222.396 111.642 222.137 111.456 221.848 111.331C221.558 111.206 221.245 111.144 220.93 111.151C220.252 111.165 219.601 111.422 219.096 111.875C218.591 112.329 218.266 112.948 218.18 113.621C218.14 113.935 218.167 114.254 218.262 114.555C218.356 114.857 218.515 115.135 218.727 115.37C218.938 115.604 219.199 115.79 219.489 115.915C219.78 116.04 220.094 116.1 220.41 116.091C221.088 116.079 221.739 115.823 222.242 115.369C222.746 114.915 223.068 114.294 223.15 113.621Z" fill="#263238"/>
<path d="M230.78 113.621C230.822 113.308 230.796 112.99 230.703 112.688C230.61 112.386 230.452 112.108 230.241 111.873C230.03 111.638 229.77 111.452 229.48 111.327C229.19 111.203 228.876 111.143 228.56 111.151C227.883 111.165 227.233 111.423 226.73 111.876C226.227 112.33 225.904 112.949 225.82 113.621C225.778 113.934 225.805 114.253 225.898 114.555C225.991 114.856 226.148 115.134 226.359 115.369C226.571 115.604 226.83 115.79 227.12 115.915C227.411 116.04 227.725 116.1 228.04 116.091C228.718 116.079 229.369 115.823 229.872 115.369C230.376 114.915 230.698 114.294 230.78 113.621Z" fill="#263238"/>
<path d="M238.422 113.621C238.46 113.308 238.431 112.99 238.336 112.689C238.241 112.388 238.083 112.111 237.871 111.877C237.66 111.642 237.4 111.456 237.11 111.331C236.821 111.206 236.507 111.145 236.192 111.151C235.514 111.165 234.865 111.423 234.362 111.876C233.859 112.33 233.536 112.949 233.452 113.621C233.411 113.935 233.439 114.254 233.533 114.555C233.628 114.857 233.786 115.135 233.998 115.37C234.21 115.604 234.47 115.79 234.761 115.915C235.051 116.04 235.366 116.1 235.682 116.091C236.36 116.079 237.01 115.823 237.514 115.369C238.017 114.915 238.34 114.294 238.422 113.621Z" fill="#263238"/>
<path d="M246.051 113.621C246.091 113.309 246.063 112.991 245.97 112.69C245.876 112.389 245.718 112.111 245.507 111.877C245.297 111.642 245.038 111.456 244.748 111.331C244.459 111.206 244.146 111.144 243.831 111.151C243.152 111.165 242.501 111.422 241.997 111.875C241.492 112.329 241.167 112.948 241.081 113.621C241.04 113.935 241.068 114.254 241.162 114.555C241.257 114.857 241.415 115.135 241.627 115.37C241.839 115.604 242.099 115.79 242.39 115.915C242.68 116.04 242.994 116.1 243.311 116.091C243.988 116.079 244.639 115.823 245.143 115.369C245.646 114.915 245.969 114.294 246.051 113.621Z" fill="#263238"/>
<path d="M239.591 83.9316L239.051 89.0616C239.013 89.2848 238.9 89.4884 238.731 89.6392C238.562 89.79 238.347 89.879 238.121 89.8916C238.014 89.8955 237.908 89.8761 237.81 89.8346C237.712 89.7931 237.624 89.7306 237.552 89.6515C237.481 89.5724 237.427 89.4786 237.396 89.3766C237.365 89.2747 237.356 89.1672 237.371 89.0616L237.911 83.9316C237.958 83.5517 237.923 83.1661 237.809 82.8009C237.694 82.4357 237.502 82.0995 237.246 81.815C236.99 81.5304 236.676 81.3043 236.325 81.1519C235.973 80.9995 235.594 80.9243 235.211 80.9316H233.361C232.539 80.9511 231.751 81.2645 231.14 81.8148C230.529 82.3652 230.136 83.1161 230.031 83.9316L229.561 88.6916H227.881L228.351 83.9316C228.509 82.659 229.122 81.4863 230.075 80.6285C231.028 79.7707 232.259 79.2854 233.541 79.2616H235.381C235.978 79.2465 236.571 79.3609 237.12 79.5968C237.669 79.8327 238.16 80.1845 238.56 80.6282C238.96 81.0719 239.259 81.5968 239.437 82.167C239.615 82.7372 239.668 83.3392 239.591 83.9316Z" fill="#FF085D"/>
<path d="M239.592 88.8712L238.542 98.8712C238.501 99.1817 238.351 99.4673 238.118 99.6764C237.885 99.8855 237.585 100.004 237.272 100.011H227.272C227.128 100.013 226.985 99.983 226.854 99.9242C226.722 99.8654 226.605 99.779 226.51 99.6707C226.415 99.5625 226.345 99.435 226.303 99.297C226.262 99.159 226.251 99.0138 226.272 98.8712L227.322 88.8712C227.341 88.6657 227.409 88.4678 227.521 88.2939C227.632 88.12 227.783 87.9751 227.962 87.8712C228.153 87.7593 228.37 87.7006 228.592 87.7012H238.592C238.796 87.6991 238.997 87.7545 239.172 87.8612C239.332 87.9706 239.457 88.1244 239.532 88.3037C239.606 88.4831 239.627 88.6803 239.592 88.8712Z" fill="#FF085D"/>
<path d="M293.461 67.9715C293.328 67.9715 293.201 67.9189 293.107 67.8251C293.014 67.7313 292.961 67.6042 292.961 67.4715C292.961 67.3389 293.014 67.2118 293.107 67.118C293.201 67.0242 293.328 66.9715 293.461 66.9715L317.901 66.8315C318.034 66.8315 318.161 66.8842 318.254 66.978C318.348 67.0717 318.401 67.1989 318.401 67.3315C318.401 67.4642 318.348 67.5913 318.254 67.6851C318.161 67.7789 318.034 67.8315 317.901 67.8315L293.471 67.9715H293.461Z" fill="#263238"/>
<path d="M322.592 67.8013C322.459 67.8013 322.332 67.7486 322.238 67.6548C322.144 67.561 322.092 67.4339 322.092 67.3013C322.092 67.1687 322.144 67.0415 322.238 66.9477C322.332 66.8539 322.459 66.8013 322.592 66.8013H331.232C331.364 66.8013 331.492 66.8539 331.585 66.9477C331.679 67.0415 331.732 67.1687 331.732 67.3013C331.732 67.4339 331.679 67.561 331.585 67.6548C331.492 67.7486 331.364 67.8013 331.232 67.8013H322.592Z" fill="#263238"/>
<g opacity="0.3">
<path d="M159.691 72.6616H187.691L159.221 190.492H136.651C136 190.479 135.36 190.319 134.779 190.024C134.198 189.729 133.692 189.306 133.298 188.788C132.903 188.269 132.631 187.669 132.502 187.03C132.373 186.392 132.389 185.733 132.551 185.102L159.691 72.6616Z" fill="white"/>
<path d="M200.09 72.6616H211.96L183.52 190.492H171.65L200.09 72.6616Z" fill="white"/>
</g>
<path d="M11.2421 35.8813H16.9221C15.5915 35.8624 14.2716 36.1226 13.0478 36.6453C11.8239 37.168 10.7232 37.9414 9.81673 38.9157C8.91025 39.8901 8.21812 41.0436 7.785 42.302C7.35187 43.5603 7.18738 44.8955 7.30215 46.2213L19.3521 218.521C19.5806 221.311 20.84 223.916 22.8848 225.828C24.9296 227.739 27.6132 228.821 30.4121 228.861H24.7421C21.9421 228.821 19.2573 227.74 17.2109 225.828C15.1645 223.917 13.9029 221.312 13.6721 218.521L1.59215 46.2213C1.4771 44.8929 1.64238 43.5552 2.07728 42.2947C2.51219 41.0343 3.20703 39.8792 4.11677 38.9044C5.02652 37.9296 6.13089 37.1568 7.35835 36.6361C8.58581 36.1153 9.90898 35.8581 11.2421 35.8813Z" fill="#FF085D"/>
<path d="M11.2408 35.8808H16.9208C15.5902 35.8619 14.2703 36.1222 13.0465 36.6448C11.8226 37.1675 10.7219 37.9409 9.81543 38.9153C8.90895 39.8896 8.21681 41.0431 7.78369 42.3015C7.35057 43.5598 7.18608 44.895 7.30084 46.2208L19.3508 218.521C19.5793 221.311 20.8387 223.916 22.8835 225.827C24.9283 227.739 27.6119 228.82 30.4108 228.861H24.7408C19.0308 228.861 13.2708 224.231 12.8708 218.521L0.820847 46.2208C0.420847 40.5108 5.53085 35.8808 11.2408 35.8808Z" fill="#263238"/>
<path d="M26.4315 228.871H95.9315C97.2655 228.896 98.5898 228.64 99.8184 228.119C101.047 227.599 102.153 226.827 103.064 225.852C103.974 224.877 104.67 223.721 105.106 222.46C105.541 221.199 105.707 219.86 105.591 218.531L93.5015 46.2211C93.2753 43.4277 92.0154 40.8191 89.9683 38.905C87.9211 36.991 85.2338 35.9092 82.4315 35.8711H12.9415C11.6099 35.852 10.2891 36.1125 9.06453 36.6358C7.83992 37.1591 6.73872 37.9334 5.83208 38.9089C4.92545 39.8843 4.23354 41.0391 3.80109 42.2986C3.36863 43.5582 3.20525 44.8945 3.32149 46.2211L15.3215 218.521C15.5506 221.32 16.8168 223.933 18.8719 225.848C20.927 227.762 23.6229 228.841 26.4315 228.871Z" fill="#FF085D"/>
<g opacity="0.6">
<path d="M82.2512 39.2212C84.1983 39.252 86.0642 40.0062 87.4857 41.3371C88.9072 42.6681 89.7825 44.4804 89.9412 46.4212L101.991 218.721C102.073 219.6 101.968 220.487 101.684 221.323C101.399 222.159 100.941 222.926 100.34 223.572C99.7384 224.219 99.0072 224.731 98.194 225.076C97.3809 225.42 96.5041 225.589 95.6212 225.571H26.1312C24.1831 225.541 22.316 224.787 20.8928 223.456C19.4697 222.125 18.5923 220.313 18.4312 218.371L6.43122 46.0712C6.34986 45.1961 6.45337 44.3138 6.735 43.4813C7.01664 42.6489 7.47013 41.8849 8.06605 41.239C8.66197 40.5931 9.38702 40.0797 10.1942 39.7321C11.0013 39.3845 11.8725 39.2104 12.7512 39.2212H82.2512Z" fill="white"/>
</g>
<g opacity="0.3">
<path d="M62.5923 225.551H34.9023L57.7623 39.2212H80.0723C81.0357 39.2176 81.9895 39.413 82.874 39.795C83.7584 40.177 84.5545 40.7374 85.2123 41.4412L62.5923 225.551Z" fill="white"/>
<path d="M29.9314 225.551H23.6914L46.5514 39.2012H52.7914L29.9314 225.551Z" fill="white"/>
</g>
<path d="M78.1115 121.121H27.7715C27.6389 121.121 27.5117 121.068 27.4179 120.975C27.3242 120.881 27.2715 120.754 27.2715 120.621C27.2715 120.488 27.3242 120.361 27.4179 120.268C27.5117 120.174 27.6389 120.121 27.7715 120.121H78.1115C78.2433 120.124 78.369 120.177 78.4622 120.27C78.5554 120.364 78.6089 120.489 78.6115 120.621C78.6115 120.754 78.5588 120.881 78.465 120.975C78.3713 121.068 78.2441 121.121 78.1115 121.121Z" fill="white"/>
<path d="M73.6917 128.571H34.2617C34.1291 128.571 34.0019 128.519 33.9082 128.425C33.8144 128.331 33.7617 128.204 33.7617 128.071C33.7617 127.939 33.8144 127.811 33.9082 127.718C34.0019 127.624 34.1291 127.571 34.2617 127.571H73.6917C73.8243 127.571 73.9515 127.624 74.0453 127.718C74.139 127.811 74.1917 127.939 74.1917 128.071C74.1917 128.204 74.139 128.331 74.0453 128.425C73.9515 128.519 73.8243 128.571 73.6917 128.571Z" fill="white"/>
<path d="M29.2714 86.3009L29.3414 88.3009H28.0514L27.9814 86.3009L25.6914 82.7109H27.0614L28.6414 85.1909L30.0414 82.7109H31.3114L29.2714 86.3009Z" fill="#FF085D"/>
<path d="M31.362 85.4811C31.345 85.088 31.4119 84.6958 31.5583 84.3306C31.7047 83.9654 31.9272 83.6355 32.2111 83.3631C32.4949 83.0906 32.8335 82.8817 33.2044 82.7503C33.5753 82.6189 33.9699 82.5681 34.362 82.6011C34.7585 82.5809 35.155 82.6397 35.5286 82.7739C35.9023 82.9082 36.2455 83.1152 36.5385 83.3831C36.8315 83.651 37.0684 83.9744 37.2355 84.3345C37.4026 84.6947 37.4966 85.0844 37.512 85.4811C37.5304 85.875 37.4646 86.2683 37.3189 86.6347C37.1731 87.0012 36.9508 87.3322 36.6668 87.6058C36.3828 87.8794 36.0436 88.0892 35.672 88.2212C35.3004 88.3532 34.9049 88.4043 34.512 88.3711C34.1147 88.3912 33.7173 88.3321 33.3431 88.1973C32.9688 88.0624 32.6251 87.8545 32.332 87.5855C32.0388 87.3166 31.8021 86.992 31.6356 86.6307C31.4691 86.2695 31.376 85.8786 31.362 85.4811ZM36.162 85.4811C36.1634 85.2444 36.1173 85.0098 36.0264 84.7913C35.9356 84.5727 35.8018 84.3746 35.6331 84.2086C35.4643 84.0427 35.264 83.9123 35.0439 83.8251C34.8239 83.7379 34.5886 83.6957 34.352 83.7011C34.1201 83.6913 33.8888 83.7315 33.6738 83.8189C33.4588 83.9063 33.2651 84.0389 33.1058 84.2077C32.9465 84.3765 32.8253 84.5775 32.7505 84.7972C32.6756 85.0169 32.6488 85.2501 32.672 85.4811C32.6692 85.7186 32.7143 85.9543 32.8046 86.174C32.8948 86.3937 33.0284 86.593 33.1972 86.7601C33.3661 86.9271 33.5669 87.0584 33.7876 87.1462C34.0084 87.234 34.2445 87.2765 34.482 87.2711C34.7139 87.2777 34.9446 87.2351 35.1588 87.146C35.3731 87.0568 35.5659 86.9233 35.7247 86.7541C35.8835 86.5849 36.0046 86.3839 36.08 86.1645C36.1553 85.9451 36.1833 85.7121 36.162 85.4811Z" fill="#FF085D"/>
<path d="M38.4008 85.8209L38.3008 82.6909H39.5908L39.6908 85.7709C39.6908 86.8309 40.2108 87.2709 40.9908 87.2709C41.7708 87.2709 42.2108 86.8309 42.1808 85.7709L42.0708 82.6909H43.3408L43.4508 85.8209C43.5033 86.1574 43.4778 86.5014 43.3761 86.8263C43.2745 87.1513 43.0994 87.4486 42.8645 87.6951C42.6296 87.9416 42.3411 88.1307 42.0214 88.2479C41.7017 88.3651 41.3594 88.4072 41.0208 88.3709C40.675 88.4018 40.3266 88.3577 39.9994 88.2415C39.6722 88.1252 39.374 87.9397 39.1252 87.6975C38.8764 87.4554 38.6829 87.1623 38.5578 86.8384C38.4328 86.5145 38.3792 86.1674 38.4008 85.8209Z" fill="#FF085D"/>
<path d="M48.3711 88.2809L47.2411 86.7209H46.0511L46.1111 88.2809H44.8211L44.6211 82.6909H47.0411C48.5311 82.6909 49.4911 83.4709 49.5311 84.6909C49.5635 85.0626 49.4748 85.4348 49.2784 85.752C49.082 86.0691 48.7883 86.3143 48.4411 86.4509L49.7611 88.2509L48.3711 88.2809ZM47.0011 83.7509H46.0011L46.0711 85.6909H47.0711C47.8611 85.6909 48.2411 85.3309 48.2211 84.6909C48.2011 84.0509 47.7911 83.7509 47.0011 83.7509Z" fill="#FF085D"/>
<path d="M52.4922 85.4809C52.4715 85.0938 52.5332 84.7068 52.6732 84.3453C52.8132 83.9838 53.0282 83.6561 53.3042 83.3839C53.5802 83.1117 53.9108 82.9012 54.2742 82.7662C54.6375 82.6312 55.0254 82.5749 55.4122 82.6009C55.85 82.5874 56.2855 82.6699 56.688 82.8427C57.0906 83.0154 57.4504 83.2742 57.7422 83.6009L56.9422 84.3609C56.7652 84.1553 56.5457 83.9907 56.2987 83.8785C56.0518 83.7662 55.7834 83.7091 55.5122 83.7109C55.2779 83.6986 55.0437 83.7367 54.8253 83.8226C54.607 83.9085 54.4097 84.0403 54.2466 84.209C54.0836 84.3778 53.9587 84.5795 53.8803 84.8006C53.8019 85.0218 53.7718 85.2572 53.7922 85.4909C53.7906 85.7315 53.8379 85.9699 53.9311 86.1917C54.0243 86.4136 54.1615 86.6142 54.3344 86.7815C54.5073 86.9488 54.7124 87.0793 54.9371 87.1652C55.1619 87.251 55.4018 87.2904 55.6422 87.2809C55.9078 87.2864 56.171 87.2295 56.4106 87.1149C56.6503 87.0003 56.8597 86.8311 57.0222 86.6209L57.8722 87.3809C57.6001 87.713 57.2539 87.9765 56.8613 88.1502C56.4688 88.3239 56.0409 88.4029 55.6122 88.3809C55.2165 88.397 54.8216 88.3345 54.4502 88.1972C54.0788 88.0598 53.7382 87.8503 53.4482 87.5807C53.1581 87.3112 52.9243 86.9868 52.7602 86.6264C52.5962 86.266 52.5051 85.8767 52.4922 85.4809Z" fill="#FF085D"/>
<path d="M58.2114 85.4812C58.1951 85.0927 58.2608 84.705 58.4043 84.3435C58.5477 83.9821 58.7657 83.6548 59.044 83.3832C59.3222 83.1115 59.6546 82.9014 60.0194 82.7667C60.3843 82.632 60.7734 82.5756 61.1614 82.6012C61.5579 82.5811 61.9545 82.6398 62.3281 82.7741C62.7017 82.9083 63.045 83.1154 63.338 83.3833C63.631 83.6512 63.8679 83.9745 64.035 84.3347C64.2021 84.6948 64.2961 85.0845 64.3114 85.4812C64.3292 85.8706 64.2645 86.2594 64.1217 86.622C63.9789 86.9847 63.7612 87.3132 63.4827 87.586C63.2043 87.8587 62.8714 88.0697 62.5059 88.205C62.1403 88.3403 61.7504 88.397 61.3614 88.3712C60.9641 88.3914 60.5668 88.3323 60.1925 88.1974C59.8183 88.0626 59.4746 87.8546 59.1814 87.5857C58.8883 87.3167 58.6516 86.9922 58.485 86.6309C58.3185 86.2696 58.2255 85.8788 58.2114 85.4812ZM63.0014 85.4812C63.0042 85.245 62.9593 85.0107 62.8696 84.7922C62.7798 84.5736 62.647 84.3754 62.4791 84.2093C62.3111 84.0432 62.1114 83.9126 61.8919 83.8254C61.6724 83.7381 61.4376 83.6958 61.2014 83.7012C60.9695 83.6915 60.7382 83.7317 60.5232 83.8191C60.3082 83.9065 60.1145 84.0391 59.9552 84.2079C59.7959 84.3766 59.6747 84.5777 59.5999 84.7974C59.5251 85.0171 59.4983 85.2503 59.5214 85.4812C59.5173 85.7183 59.5611 85.9537 59.6503 86.1734C59.7394 86.3931 59.872 86.5925 60.0401 86.7597C60.2082 86.9268 60.4084 87.0583 60.6286 87.1462C60.8487 87.2341 61.0844 87.2767 61.3214 87.2712C61.5538 87.2795 61.7853 87.238 62.0002 87.1494C62.2152 87.0608 62.4088 86.9273 62.5679 86.7577C62.727 86.5882 62.8481 86.3866 62.9228 86.1664C62.9976 85.9462 63.0244 85.7126 63.0014 85.4812Z" fill="#FF085D"/>
<path d="M65.1914 82.691H67.7214C68.1155 82.6524 68.5133 82.6953 68.8901 82.8169C69.267 82.9385 69.6148 83.1362 69.9121 83.3978C70.2093 83.6594 70.4496 83.9793 70.6181 84.3377C70.7865 84.696 70.8796 85.0852 70.8914 85.481C70.9136 85.8719 70.8494 86.263 70.7036 86.6264C70.5577 86.9898 70.3337 87.3167 70.0475 87.5839C69.7612 87.8511 69.4196 88.052 69.047 88.1725C68.6744 88.293 68.2799 88.33 67.8914 88.281H65.3514L65.1914 82.691ZM67.8214 87.221C68.0573 87.2454 68.2956 87.2175 68.5194 87.1391C68.7432 87.0607 68.9469 86.9339 69.116 86.7677C69.2851 86.6014 69.4154 86.3999 69.4976 86.1775C69.5798 85.955 69.6118 85.7172 69.5914 85.481C69.5909 85.2401 69.5404 85.002 69.4431 84.7817C69.3459 84.5613 69.2039 84.3636 69.0262 84.201C68.8486 84.0384 68.6391 83.9144 68.4111 83.8369C68.183 83.7595 67.9414 83.7302 67.7014 83.751H66.5214L66.6414 87.221H67.8214Z" fill="#FF085D"/>
<path d="M76.2505 87.2209V88.2209H71.9305L71.7305 82.6309H75.9505V83.6309H73.0905V84.8409H75.6805V85.8409H73.0905V87.1309L76.2505 87.2209Z" fill="#FF085D"/>
<path d="M38.9719 109.031V111.271H28.4819V109.501L34.062 104.111C35.422 102.781 35.652 101.951 35.642 101.111C35.642 99.8109 34.702 99.0509 32.952 99.0509C32.3202 99.019 31.6898 99.1374 31.1127 99.3965C30.5356 99.6555 30.0281 100.048 29.632 100.541L27.752 99.1109C28.3983 98.3202 29.223 97.6941 30.1581 97.2839C31.0933 96.8737 32.1125 96.691 33.132 96.7509C36.232 96.7509 38.2619 98.3209 38.3019 100.851C38.3019 102.231 37.962 103.501 36.0219 105.361L32.2719 108.991L38.9719 109.031Z" fill="#263238"/>
<path d="M50.5911 106.991C50.5911 109.391 48.8511 111.471 45.0211 111.471C43.092 111.505 41.2015 110.928 39.6211 109.821L40.7311 107.761C41.936 108.691 43.4192 109.188 44.9411 109.171C46.8311 109.171 47.9411 108.331 47.9411 107.011C47.9411 105.691 46.9411 104.881 44.8011 104.881H43.5011V103.071L46.5911 99.221H40.1011V97.001H49.8411V98.781L46.4411 102.901C49.1711 103.221 50.5911 104.841 50.5911 106.991Z" fill="#263238"/>
<path d="M63.9308 107.221C63.9308 109.871 61.7008 111.521 58.1508 111.521C54.6008 111.521 52.3008 109.871 52.2608 107.221C52.2308 106.492 52.4284 105.773 52.8263 105.162C53.2241 104.55 53.8024 104.078 54.4808 103.811C53.9271 103.53 53.4626 103.101 53.1394 102.571C52.8161 102.041 52.6469 101.432 52.6508 100.811C52.6508 98.361 54.7308 96.811 57.8908 96.811C61.0508 96.811 63.2608 98.341 63.3008 100.811C63.3318 101.428 63.1817 102.041 62.869 102.574C62.5563 103.107 62.0946 103.537 61.5408 103.811C62.2362 104.073 62.8363 104.538 63.2628 105.147C63.6892 105.755 63.922 106.478 63.9308 107.221ZM61.2508 107.141C61.2508 105.731 59.9908 104.851 58.0308 104.851C56.0708 104.851 54.9008 105.731 54.9308 107.141C54.9608 108.551 56.1508 109.441 58.1108 109.441C60.0708 109.441 61.2808 108.541 61.2508 107.091V107.141ZM55.2508 100.941C55.2508 102.161 56.2508 102.941 57.9808 102.941C59.7108 102.941 60.7008 102.161 60.6708 100.941C60.6408 99.721 59.5408 98.941 57.9008 98.941C56.2608 98.941 55.2508 99.601 55.2708 100.891L55.2508 100.941Z" fill="#263238"/>
<path d="M77.2306 107.221C77.2306 109.871 75.0006 111.521 71.4506 111.521C67.9006 111.521 65.5906 109.821 65.5906 107.221C65.5621 106.493 65.7603 105.774 66.158 105.163C66.5556 104.552 67.1331 104.08 67.8106 103.811C67.2566 103.532 66.7922 103.102 66.4703 102.572C66.1485 102.042 65.9823 101.431 65.9906 100.811C65.9406 98.361 68.0606 96.811 71.2206 96.811C74.3806 96.811 76.5906 98.341 76.6306 100.811C76.6616 101.428 76.5115 102.041 76.1988 102.574C75.8861 103.107 75.4244 103.537 74.8706 103.811C75.5603 104.078 76.1541 104.545 76.5749 105.153C76.9957 105.761 77.2242 106.482 77.2306 107.221ZM74.5506 107.141C74.5506 105.731 73.2906 104.851 71.3306 104.851C69.3706 104.851 68.2006 105.731 68.2306 107.141C68.2606 108.551 69.4506 109.441 71.4106 109.441C73.3706 109.441 74.5906 108.541 74.5906 107.091L74.5506 107.141ZM68.5506 100.941C68.5506 102.161 69.6006 102.941 71.2806 102.941C72.9606 102.941 74.0006 102.161 73.9806 100.941C73.9606 99.721 72.8406 98.941 71.2106 98.941C69.5806 98.941 68.5906 99.601 68.5906 100.891L68.5506 100.941Z" fill="#263238"/>
<path d="M3.08154 85.5309C2.95397 85.5311 2.83114 85.4826 2.73819 85.3952C2.64523 85.3078 2.58919 85.1882 2.58154 85.0609L0.811543 60.8909C0.803264 60.7598 0.846864 60.6308 0.932934 60.5316C1.019 60.4325 1.14063 60.3711 1.27154 60.3609C1.40365 60.3525 1.53385 60.3958 1.63462 60.4816C1.73539 60.5675 1.79883 60.6891 1.81154 60.8209L3.59154 84.9909C3.59701 85.0566 3.58943 85.1227 3.56923 85.1855C3.54904 85.2483 3.51664 85.3064 3.47389 85.3566C3.43113 85.4068 3.37887 85.448 3.32012 85.4779C3.26136 85.5078 3.19728 85.5258 3.13154 85.5309H3.08154Z" fill="#FF085D"/>
<path d="M0.971217 56.721C0.845257 56.7214 0.72379 56.6742 0.631091 56.5889C0.538393 56.5036 0.481293 56.3865 0.471217 56.261L0.00122357 49.881C-0.00337269 49.8153 0.00500845 49.7494 0.0258894 49.6869C0.0467704 49.6245 0.0797408 49.5668 0.12292 49.5171C0.210124 49.4168 0.333612 49.3552 0.46622 49.346C0.598828 49.3367 0.729696 49.3804 0.830028 49.4676C0.93036 49.5549 0.991941 49.6783 1.00122 49.8109L1.47122 56.191C1.4795 56.322 1.4359 56.451 1.34983 56.5502C1.26376 56.6494 1.14213 56.7107 1.01122 56.721H0.971217Z" fill="#FF085D"/>
<path d="M47.9609 26.3111C47.8283 26.3111 47.7012 26.2584 47.6074 26.1646C47.5136 26.0709 47.4609 25.9437 47.4609 25.8111V11.1011C47.4609 10.9685 47.5136 10.8413 47.6074 10.7475C47.7012 10.6538 47.8283 10.6011 47.9609 10.6011C48.0935 10.6011 48.2207 10.6538 48.3145 10.7475C48.4083 10.8413 48.4609 10.9685 48.4609 11.1011V25.8111C48.4609 25.9437 48.4083 26.0709 48.3145 26.1646C48.2207 26.2584 48.0935 26.3111 47.9609 26.3111Z" fill="#FF085D"/>
<path d="M36.3118 29.4312C36.2245 29.4306 36.1389 29.4073 36.0635 29.3634C35.9881 29.3196 35.9254 29.2567 35.8818 29.1812L28.5218 16.4412C28.4555 16.3258 28.4377 16.1888 28.4724 16.0604C28.5071 15.9319 28.5914 15.8225 28.7068 15.7562C28.8222 15.6899 28.9592 15.6721 29.0876 15.7068C29.2161 15.7415 29.3255 15.8258 29.3918 15.9412L36.7418 28.6812C36.7756 28.7374 36.7978 28.7998 36.8071 28.8648C36.8163 28.9297 36.8125 28.9958 36.7957 29.0593C36.7789 29.1227 36.7495 29.1821 36.7094 29.2339C36.6692 29.2858 36.619 29.3291 36.5618 29.3612C36.4853 29.4041 36.3995 29.4281 36.3118 29.4312Z" fill="#FF085D"/>
<path d="M59.5909 29.4312C59.504 29.4316 59.4182 29.411 59.3409 29.3712C59.2267 29.3025 59.1439 29.1918 59.1103 29.0629C59.0766 28.9339 59.0948 28.7969 59.1609 28.6812L66.5109 15.9412C66.5772 15.8258 66.6866 15.7415 66.8151 15.7068C66.9435 15.6721 67.0805 15.6899 67.1959 15.7562C67.3113 15.8225 67.3956 15.9319 67.4303 16.0604C67.465 16.1888 67.4472 16.3258 67.3809 16.4412L60.0409 29.2212C59.9907 29.2923 59.9227 29.3492 59.8438 29.386C59.7649 29.4228 59.6777 29.4384 59.5909 29.4312Z" fill="#FF085D"/>
</svg>
