<svg width="20" height="22" viewBox="0 0 20 22" fill="none" xmlns="http://www.w3.org/2000/svg">
<path d="M2 10V14C2 17.3 2 18.95 3.025 19.975C4.05 21 5.7 21 9 21H11C14.3 21 15.95 21 16.975 19.975C18 18.95 18 17.3 18 14V10M10 4.857C10 3.83406 9.59364 2.85302 8.87031 2.12969C8.14698 1.40636 7.16594 1 6.143 1H5.786C4.8 1 4 1.799 4 2.786C4 3.63841 4.33862 4.4559 4.94136 5.05864C5.5441 5.66138 6.36159 6 7.214 6H10M10 4.857V6M10 4.857C10 3.83406 10.4064 2.85302 11.1297 2.12969C11.853 1.40636 12.8341 1 13.857 1H14.214C15.2 1 16 1.799 16 2.786C16 3.20807 15.9169 3.626 15.7553 4.01594C15.5938 4.40588 15.3571 4.76019 15.0586 5.05864C14.7602 5.35709 14.4059 5.59383 14.0159 5.75535C13.626 5.91687 13.2081 6 12.786 6H10M10 10V21M1 8C1 7.252 1 6.878 1.201 6.6C1.34356 6.40899 1.53253 6.25754 1.75 6.16C2.098 6 2.565 6 3.5 6H16.5C17.435 6 17.902 6 18.25 6.16C18.478 6.266 18.667 6.418 18.799 6.6C19 6.878 19 7.252 19 8C19 8.748 19 9.121 18.799 9.4C18.6564 9.59101 18.4675 9.74246 18.25 9.84C17.902 10 17.435 10 16.5 10H3.5C2.565 10 2.098 10 1.75 9.84C1.53253 9.74246 1.34356 9.59101 1.201 9.4C1 9.121 1 8.748 1 8Z" stroke="#F3A922" stroke-width="1.5" stroke-linecap="round" stroke-linejoin="round"/>
</svg>
