<svg width="16" height="16" viewBox="0 0 16 16" fill="none" xmlns="http://www.w3.org/2000/svg">
<path d="M14.276 1.72576C13.3353 0.784407 12.1034 0.189544 10.7811 0.0382009C9.45886 -0.113143 8.12432 0.187965 6.9952 0.892408C5.86607 1.59685 5.00899 2.66306 4.56376 3.91711C4.11852 5.17117 4.11141 6.53907 4.54358 7.79769L0.309448 12.0313C0.211131 12.1292 0.133172 12.2457 0.0800629 12.3739C0.0269537 12.5021 -0.000255763 12.6396 1.81173e-06 12.7784V14.9435C1.81173e-06 15.2237 0.111327 15.4924 0.309486 15.6906C0.507646 15.8887 0.776408 16 1.05665 16H3.47184C3.59194 16 3.70713 15.9523 3.79205 15.8674C3.87698 15.7825 3.92469 15.6673 3.92469 15.5472V14.1888H5.28323C5.40334 14.1888 5.51852 14.1411 5.60345 14.0562C5.68837 13.9713 5.73608 13.8561 5.73608 13.736V12.3777H7.09463C7.21469 12.3776 7.32979 12.3298 7.41464 12.2449L8.20335 11.457C8.81811 11.6679 9.46368 11.775 10.1136 11.7739H10.1212C11.2848 11.7723 12.4218 11.426 13.3886 10.7786C14.3555 10.1312 15.1088 9.21187 15.5534 8.13668C15.9979 7.06149 16.1139 5.87868 15.8865 4.73764C15.6592 3.5966 15.0988 2.54851 14.276 1.72576ZM15.0949 6.05067C15.0104 8.70402 12.7801 10.8653 10.1227 10.8684C9.48923 10.8697 8.86135 10.7501 8.27279 10.5159C8.18937 10.4796 8.09694 10.4693 8.00755 10.4862C7.91816 10.5032 7.83595 10.5467 7.77164 10.611L6.90669 11.4721H5.28323C5.16313 11.4721 5.04795 11.5198 4.96302 11.6047C4.8781 11.6896 4.83038 11.8048 4.83038 11.9249V13.2833H3.47184C3.35174 13.2833 3.23655 13.331 3.15163 13.4159C3.0667 13.5008 3.01899 13.616 3.01899 13.736V15.0944H1.05665C1.01661 15.0944 0.978219 15.0785 0.949911 15.0502C0.921602 15.0219 0.905699 14.9835 0.905699 14.9435V12.7784C0.905667 12.7385 0.921403 12.7003 0.949474 12.672L5.38965 8.23237C5.45402 8.16806 5.49751 8.08587 5.51447 7.99648C5.53144 7.9071 5.52108 7.81469 5.48475 7.73128C5.25 7.14295 5.13034 6.51505 5.13228 5.88163C5.13228 3.2245 7.2969 0.994501 9.94984 0.906962C10.6316 0.884158 11.3108 1.0016 11.9453 1.25202C12.5798 1.50244 13.1561 1.88048 13.6385 2.36273C14.1208 2.84498 14.499 3.42115 14.7496 4.05554C15.0001 4.68992 15.1177 5.36899 15.0949 6.05067ZM12.3779 4.37836C12.3779 4.52762 12.3336 4.67352 12.2507 4.79762C12.1677 4.92172 12.0499 5.01845 11.9119 5.07557C11.774 5.13268 11.6223 5.14763 11.4759 5.11851C11.3295 5.08939 11.195 5.01752 11.0894 4.91198C10.9839 4.80644 10.912 4.67197 10.8829 4.52559C10.8537 4.3792 10.8687 4.22746 10.9258 4.08957C10.9829 3.95167 11.0797 3.83381 11.2038 3.75089C11.3279 3.66797 11.4738 3.62371 11.6231 3.62371C11.8233 3.62371 12.0153 3.70322 12.1568 3.84474C12.2983 3.98627 12.3779 4.17821 12.3779 4.37836Z" fill="#289626"/>
</svg>
