<svg width="20" height="22" viewBox="0 0 20 22" fill="none" xmlns="http://www.w3.org/2000/svg">
<path opacity="0.5" d="M1 9.417C1 6.219 1 4.62 1.378 4.082C1.755 3.545 3.258 3.03 6.265 2.001L6.838 1.805C8.405 1.268 9.188 1 10 1C10.812 1 11.595 1.268 13.162 1.805L13.735 2.001C16.742 3.03 18.245 3.545 18.622 4.082C19 4.62 19 6.22 19 9.417V10.991C19 16.629 14.761 19.366 12.101 20.527C11.38 20.842 11.02 21 10 21C8.98 21 8.62 20.842 7.899 20.527C5.239 19.365 1 16.63 1 10.991V9.417Z" stroke="#5CC6FF" stroke-width="1.5"/>
<path d="M9.49965 15H10.4996C10.7649 15 11.0192 14.8946 11.2068 14.7071C11.3943 14.5196 11.4996 14.2652 11.4996 14V12.599C12.0728 12.2695 12.521 11.7599 12.7746 11.1493C13.0282 10.5388 13.0729 9.86152 12.9018 9.22292C12.7308 8.58432 12.3535 8.02015 11.8286 7.61814C11.3037 7.21614 10.6608 6.99883 9.99965 7C9.33895 6.99965 8.69662 7.21742 8.17235 7.61949C7.64808 8.02157 7.27121 8.58547 7.10024 9.22367C6.92926 9.86186 6.97375 10.5386 7.22679 11.149C7.47983 11.7593 7.92726 12.269 8.49965 12.599V14C8.49965 14.2652 8.60501 14.5196 8.79254 14.7071C8.98008 14.8946 9.23443 15 9.49965 15Z" stroke="#5CC6FF" stroke-width="1.5" stroke-linejoin="round"/>
</svg>
