<svg width="20" height="21" viewBox="0 0 20 21" fill="none" xmlns="http://www.w3.org/2000/svg">
<path d="M4.81977 4.65551C5.10458 4.75661 5.40771 4.79437 5.70836 4.7662C6.00901 4.73802 6.30005 4.64459 6.56152 4.4923C6.82299 4.34001 7.04868 4.13248 7.22312 3.88394C7.39756 3.6354 7.5166 3.35175 7.57209 3.05244L7.90698 1.23725C9.28399 0.920917 10.7139 0.920917 12.0909 1.23725L12.4279 3.05244C12.4834 3.35175 12.6024 3.6354 12.7769 3.88394C12.9513 4.13248 13.177 4.34001 13.4385 4.4923C13.6999 4.64459 13.991 4.73802 14.2916 4.7662C14.5923 4.79437 14.8954 4.75661 15.1802 4.65551L16.9059 4.04341C17.8665 5.0869 18.5822 6.33484 19 7.6949L17.6081 8.89799C17.3789 9.09614 17.1949 9.34196 17.0687 9.61857C16.9426 9.89519 16.8773 10.1961 16.8773 10.5005C16.8773 10.805 16.9426 11.1059 17.0687 11.3825C17.1949 11.6591 17.3789 11.9049 17.6081 12.1031L19 13.3051C18.5822 14.6652 17.8665 15.9131 16.9059 16.9566L15.1792 16.3445C14.8944 16.2434 14.5912 16.2056 14.2906 16.2338C13.9899 16.262 13.6989 16.3554 13.4374 16.5077C13.176 16.66 12.9503 16.8675 12.7758 17.1161C12.6014 17.3646 12.4823 17.6483 12.4269 17.9476L12.093 19.7628C10.716 20.0791 9.28608 20.0791 7.90907 19.7628L7.57209 17.9476C7.5166 17.6483 7.39756 17.3646 7.22312 17.1161C7.04868 16.8675 6.82299 16.66 6.56152 16.5077C6.30005 16.3554 6.00901 16.262 5.70836 16.2338C5.40771 16.2056 5.10458 16.2434 4.81977 16.3445L3.09407 16.9566C2.13347 15.9131 1.4178 14.6652 1 13.3051L2.39186 12.102C2.62092 11.9039 2.80477 11.6581 2.93082 11.3816C3.05687 11.1051 3.12214 10.8043 3.12214 10.5C3.12214 10.1957 3.05687 9.89493 2.93082 9.61841C2.80477 9.3419 2.62092 9.09614 2.39186 8.89799L1 7.6949C1.41749 6.33493 2.1328 5.08701 3.09302 4.04341L4.81977 4.65551ZM10 7.33397C10.8327 7.33397 11.6312 7.66753 12.22 8.26128C12.8088 8.85502 13.1395 9.66032 13.1395 10.5C13.1395 11.3397 12.8088 12.145 12.22 12.7387C11.6312 13.3325 10.8327 13.666 10 13.666C9.16734 13.666 8.36879 13.3325 7.78001 12.7387C7.19124 12.145 6.86046 11.3397 6.86046 10.5C6.86046 9.66032 7.19124 8.85502 7.78001 8.26128C8.36879 7.66753 9.16734 7.33397 10 7.33397Z" stroke="#F7931A" stroke-width="1.5" stroke-linecap="round" stroke-linejoin="round"/>
</svg>
