<svg width="18" height="20" viewBox="0 0 18 20" fill="none" xmlns="http://www.w3.org/2000/svg">
<path opacity="0.5" fill-rule="evenodd" clip-rule="evenodd" d="M1.742 9.93994C1.742 8.015 2.50668 6.1689 3.86782 4.80776C5.22896 3.44662 7.07506 2.68194 9 2.68194C10.9249 2.68194 12.771 3.44662 14.1322 4.80776C15.4933 6.1689 16.258 8.015 16.258 9.93994V14.5849C16.258 15.278 15.9827 15.9426 15.4927 16.4326C15.0026 16.9226 14.338 17.1979 13.645 17.1979H11.012C10.61 16.6769 9.86 16.3269 9 16.3269C7.717 16.3269 6.677 17.1069 6.677 18.0679C6.677 19.0309 7.717 19.8099 9 19.8099C9.86 19.8099 10.61 19.4599 11.012 18.9399H13.645C14.217 18.9399 14.7834 18.8273 15.3118 18.6083C15.8403 18.3894 16.3204 18.0685 16.7248 17.664C17.1292 17.2595 17.45 16.7793 17.6688 16.2508C17.8876 15.7223 18.0001 15.1559 18 14.5839V9.93994C18 8.75804 17.7672 7.58772 17.3149 6.49579C16.8626 5.40386 16.1997 4.41171 15.364 3.57598C14.5282 2.74025 13.5361 2.07732 12.4442 1.62503C11.3522 1.17273 10.1819 0.939941 9 0.939941C7.8181 0.939941 6.64778 1.17273 5.55585 1.62503C4.46392 2.07732 3.47177 2.74025 2.63604 3.57598C1.80031 4.41171 1.13738 5.40386 0.685084 6.49579C0.232792 7.58772 -1.76116e-08 8.75804 0 9.93994V11.6809C0 11.9119 0.0917658 12.1335 0.25511 12.2968C0.418454 12.4602 0.639996 12.5519 0.871 12.5519C1.102 12.5519 1.32355 12.4602 1.48689 12.2968C1.65023 12.1335 1.742 11.9119 1.742 11.6809V9.93994Z" fill="#85FFC4"/>
<path d="M2.61328 11.0998C2.61355 10.4839 2.85841 9.8933 3.29403 9.45787C3.72964 9.02244 4.32036 8.77783 4.93628 8.77783H5.51628C6.15828 8.77783 6.67828 9.29783 6.67828 9.93983V14.0038C6.67828 14.6448 6.15828 15.1648 5.51728 15.1648H4.93628C4.32036 15.1648 3.72964 14.9202 3.29403 14.4848C2.85841 14.0494 2.61355 13.4588 2.61328 12.8428V11.0998ZM15.3883 11.0998C15.388 10.4839 15.1432 9.8933 14.7075 9.45787C14.2719 9.02244 13.6812 8.77783 13.0653 8.77783H12.4853C11.8433 8.77783 11.3233 9.29783 11.3233 9.93983V14.0038C11.3233 14.6448 11.8433 15.1648 12.4843 15.1648H13.0643C13.6802 15.1648 14.2709 14.9202 14.7065 14.4848C15.1422 14.0494 15.387 13.4588 15.3873 12.8428L15.3883 11.0998Z" fill="#85FFC4"/>
</svg>
