<svg width="20" height="17" viewBox="0 0 20 17" fill="none" xmlns="http://www.w3.org/2000/svg">
<path d="M19 7.3C18.991 4.4974 18.9028 3.0115 17.9452 2.0548C16.8913 1 15.1939 1 11.8 1H8.2C4.8061 1 3.1087 1 2.0548 2.0548C1.0009 3.1096 1 4.8061 1 8.2C1 11.5939 1 13.2913 2.0548 14.3452C3.1096 15.3991 4.8061 15.4 8.2 15.4H9.55" stroke="#85FFC4" stroke-width="1.5" stroke-linecap="round"/>
<path opacity="0.5" d="M17.2004 15.4V10M17.2004 10L19.0004 11.8M17.2004 10L15.4004 11.8" stroke="#85FFC4" stroke-width="1.5" stroke-linecap="round" stroke-linejoin="round"/>
<path d="M13.1496 10V15.4M13.1496 15.4L14.9496 13.6M13.1496 15.4L11.3496 13.6" stroke="#85FFC4" stroke-width="1.5" stroke-linecap="round" stroke-linejoin="round"/>
<path opacity="0.5" d="M8.19961 11.7998H4.59961" stroke="#85FFC4" stroke-width="1.5" stroke-linecap="round"/>
<path opacity="0.4" d="M1 6.3999H19" stroke="#85FFC4" stroke-width="1.5" stroke-linecap="round"/>
</svg>
