<svg width="18" height="18" viewBox="0 0 18 18" fill="none" xmlns="http://www.w3.org/2000/svg">
<path d="M9.8 1.80238C9.424 1.80131 9.024 1.80078 8.6 1.80078C5.0176 1.80078 3.2256 1.80078 2.1128 2.91358C1 4.02638 1 5.81758 1 9.40078C1 12.9832 1 14.7752 2.1128 15.888C3.2256 17.0008 5.0168 17.0008 8.6 17.0008C12.1824 17.0008 13.9744 17.0008 15.0872 15.888C16.2 14.7752 16.2 12.984 16.2 9.40078C16.2 8.97678 16.1995 8.57678 16.1984 8.20078" stroke="#EA1E63" stroke-width="1.5" stroke-linecap="round"/>
<path d="M14.2004 1L14.4068 1.5576C14.6772 2.2888 14.8124 2.6544 15.0788 2.9208C15.346 3.188 15.7116 3.3232 16.4428 3.5936L17.0004 3.8L16.4428 4.0064C15.7116 4.2768 15.346 4.412 15.0796 4.6784C14.8124 4.9456 14.6772 5.3112 14.4068 6.0424L14.2004 6.6L13.994 6.0424C13.7236 5.3112 13.5884 4.9456 13.322 4.6792C13.0548 4.412 12.6892 4.2768 11.958 4.0064L11.4004 3.8L11.958 3.5936C12.6892 3.3232 13.0548 3.188 13.3212 2.9216C13.5884 2.6544 13.7236 2.2888 13.994 1.5576L14.2004 1Z" stroke="#F7931A" stroke-width="1.5" stroke-linejoin="round"/>
<path d="M5 13.3984C6.8656 11.4448 10.3144 11.3528 12.2 13.3984M10.596 7.39844C10.596 8.50244 9.7 9.39844 8.5936 9.39844C8.33069 9.39886 8.07027 9.34744 7.82725 9.24712C7.58423 9.1468 7.36337 8.99954 7.17732 8.81378C6.99126 8.62803 6.84366 8.40741 6.74295 8.16455C6.64224 7.92169 6.5904 7.66135 6.5904 7.39844C6.5904 6.29444 7.4864 5.39844 8.5936 5.39844C8.85645 5.39812 9.11678 5.44962 9.3597 5.54999C9.60263 5.65036 9.82339 5.79763 10.0094 5.98338C10.1953 6.16912 10.3429 6.38971 10.4435 6.63252C10.5442 6.87532 10.596 7.13559 10.596 7.39844Z" stroke="#EA1E63" stroke-width="1.5" stroke-linecap="round"/>
</svg>
